<?xml version="1.0" encoding="utf-8"?>
<!-- Generator: Adobe Illustrator 19.0.0, SVG Export Plug-In . SVG Version: 6.00 Build 0)  -->
<svg version="1.1" id="Layer_1" xmlns="http://www.w3.org/2000/svg" xmlns:xlink="http://www.w3.org/1999/xlink" x="0px" y="0px"
	 viewBox="240 -148 1280 948" style="enable-background:new 240 -148 1280 948;" xml:space="preserve">
<style type="text/css">
	.st0{opacity:0.1;fill:#2c3e50;enable-background:new    ;}
	.st1{opacity:0.1;}
	.st2{fill:#2c3e50;}
	.st3{opacity:0.1;fill:#2c3e50;stroke#2c3e50;stroke-width:5;stroke-linejoin:round;enable-background:new    ;}
</style>
<path class="st0" d="M869-86.5c12.7,32.7,11.8,65.1-2.7,97c-14.4,32-38.1,54.5-70.8,67.2c-32.7,12.7-64.9,12.2-97-1.4
	c-32.6-13.8-55-37.1-67.7-69.8c-12.5-32.4-11.6-64.7,3.2-96.8c14.6-31.6,38-53.6,70.8-66.3c32.7-12.7,64.8-12.5,96.8,1
	C834-142.1,856.3-119.2,869-86.5L869-86.5L869-86.5z M862.7-84.9c-11.8-30.5-33.1-52-64-64.8c-30.5-12.8-61-13.5-91.5-1.8l-2.7,30
	l14.6-2.6l6.5-14.6l19-5.6l7.2,8.5l-6.7,15.1l2.6,6.8l7.2-1.5l1.5-6.2l9-12.6l1.6,5.4l7.6,6.2l-3.1,7.7l4.7,2.1l-8.1,3.6l6,5.5
	l-14.1,15l6.4,8.7l-5.7,2.2l-6.1-8.9l-13.2,5.1l-0.8,4.6l-6.3-0.6l-5.3,12l10,5.6l3.5,9.1l9.2,2.5l44-11.4l17.2,4.2l7.7,24.3
	L802.5,8.9c-1.1,2.6-1,8.6,0.9,17.8c1.2,8.6,2.8,14.9,4.8,18l-2.6,6.6c-6-5.5-14.6-14.2-25.6-25.9c-3-4.5-6.5-10.1-10.5-17.2
	c-3.1-5.7-6.3-11.8-9.4-17.6l-24.7-9l9-26l-10.4-6.8c-11.4,1.8-18.9,2.5-22.6,1.8c-3.6-0.3-11-2.7-21.6-7.6l11.2,9.9l-3.4,3.5
	l-17.4-14.9l-4.4-18.2l-8.2-11.1l-13-5.8l-7.7,1.3l-4.4,6.5l-6,4.5c-10.1,28.6-9.9,57.1,0.8,84.9c11.9,30.8,33.1,52.9,64,66
	c30.1,13,61,13.6,92.3,1.5c31.2-12.1,53.3-33.2,66.9-64C873.7-23,874.7-53.7,862.7-84.9L862.7-84.9z"/>
<path class="st0" d="M378.1-94.5c-2.8-7.1-10.8-10.5-17.9-7.7L296-76.5c-7.1,2.8-10.5,10.8-7.7,17.9l65.8,164.4
	c2.8,7.1,10.8,10.5,17.9,7.7l64.2-25.7c7.1-2.8,10.5-10.8,7.7-17.9L378.1-94.5z M344.2-76.3c0.4,1.1-0.1,2.4-1.2,2.8L329.3-68
	c-1.1,0.4-2.4-0.1-2.8-1.2l-0.1-0.1c-0.4-1.1,0.1-2.4,1.2-2.8l13.7-5.5c1.1-0.4,2.4,0.1,2.8,1.2L344.2-76.3z M403,95.3
	c-4.6,1.8-9.8-0.4-11.7-5c-1.8-4.6,0.4-9.8,5-11.7c4.6-1.8,9.8,0.4,11.7,5C409.8,88.2,407.6,93.4,403,95.3z M431.9,58.1l-76.2,30.5
	L301.3-47.2l76.2-30.5L431.9,58.1z"/>
<g class="st1">
	<path class="st2" d="M1368.3,752c0,0-2.6-3.9-4-6.4c-1.4-2.5-1.2-4.9-1.2-4.9l3.1-16.6l-41.9-12.1l-6.2,15.7c0,0-1.2,2.3-3.7,3.7
		c-2.4,1.4-6.7,3.2-6.7,3.2s-3.7,1.3,0.7,3.3c2.6,1.2,14.4,4.9,24,7.6l9,2.6c9.8,2.8,21.6,5.9,24.4,6.2
		C1370.8,755.1,1368.3,752,1368.3,752z"/>
	<path class="st2" d="M1476.1,620.5l-189.8-54.7c-2.7-0.8-5.8,1-6.6,3.8L1247.6,681c-0.8,2.7,0.9,6,3.6,6.8l70.2,20.2l4,1.2
		l41.4,11.9l4.2,1.2l69.9,20.1c2.7,0.8,5.7-1.1,6.5-3.9l32.1-111.4C1480.4,624.4,1478.8,621.3,1476.1,620.5z M1439.8,732.8
		l-183.5-52.9l30.2-104.7l183.5,52.9L1439.8,732.8z"/>
</g>
<path class="st0" d="M1386.3,41.7c-0.8,0.1-1.5,0.1-2.5,0.2l0,0c-11.1,0.6-22.7,2-34.1,3.8c-8.2,1.2-16.6,2.6-24.5,4.2l0,0.2
	c-3.9,0.8-8.2,1.7-12,2.6c-12.7,2.8-12.6,12.5-10.8,23.3l21.9,145.8c1.3,10.9,3.7,22.2,17.6,21.3c3.9-0.3,8.1-0.6,12.1-0.9l0,0.2
	c8-0.7,16.3-1.7,24.4-3c11.4-1.6,23.3-3.8,34-6.6l0-0.1c1-0.2,1.6-0.4,2.3-0.5c13.6-3.2,12.5-14.7,10.6-25.5l-21.7-145.8
	C1402,50,1399.3,40.7,1386.3,41.7z M1340.8,55.5c-0.1-0.7,0.4-1.1,1.1-1.2l17.4-2.6c0.7-0.1,1.3,0.1,1.4,0.8
	c0.1,0.7-0.4,1.1-1.1,1.2l-17.4,2.6C1341.6,56.4,1340.9,56.2,1340.8,55.5z M1367.5,229.9l0.3-0.1l0.1,0l1.2-0.2l15.6-2.3l1.2-0.2
	l0.1,0l0.3-0.1c0,0,0.1,0.2,0.1,0.2c0.4,0,0.9,0.3,1,1.1c0.2,1.3,0.4,2.6,0.4,2.6s0,2.7-2.8,3.4c0,0,0.2,0,0.2,0c-0.1,0-0.1,0-0.2,0
	c-0.1,0-0.2,0-0.3,0.1c-3.2,0.5-11.1,1.7-13.3,2c-0.1,0-0.3,0-0.3,0.1c-0.1,0-0.2,0-0.2,0s0.1,0,0.1-0.1c-2.9,0.1-3.9-2.4-3.9-2.4
	s-0.2-1.3-0.4-2.6c-0.1-0.8,0.4-1.3,0.9-1.4C1367.5,230.1,1367.5,229.9,1367.5,229.9z M1419,211.1l-9.7,1.5l-58.5,8.7l-19.3,2.9
	l-23-152.7l19.5-2.9l58.5-8.7l9.9-1.5L1419,211.1z"/>
<path class="st0" d="M954.2,586.3l-17.8-81.1c-1.3-6.1-3.1-10.1-10.4-10.1c-3.6,0-7.1,0.2-11.1,0.7l0-0.2c-10,1.2-20.2,4-29,8
	c-6.7,3-6.6,7.5-5.2,13.5l17.7,81.1c1.1,6.1,2.8,11.3,10.7,11.3c3.6,0,7.1-0.2,11-0.7l0.1,0.2c10-1.2,20.3-4.1,29.1-8.1
	C956.6,597.8,955.7,592.3,954.2,586.3z M950.6,587.9l-14.8,3.2l-18.8,4.1l-14.5,3.2l-18.7-85l14.6-3.2l18.8-4.1l14.9-3.2
	L950.6,587.9z"/>
<path class="st0" d="M434.3,532.7c-1.7-5-7.1-7.7-12.1-6l-106.1,35.7c-5,1.7-7.7,7.1-6,12.1L366,740.3c1.7,5,7.1,7.7,12.1,6
	l106.1-35.7c5-1.7,7.7-7.1,6-12.1L434.3,532.7z M430.1,725.1c-2.8,0.9-5.8-0.6-6.8-3.4c-0.9-2.8,0.6-5.8,3.4-6.8
	c2.8-0.9,5.8,0.6,6.8,3.4S432.9,724.2,430.1,725.1z M482.1,693.3l-112.8,38l-50.5-149.7l112.8-38L482.1,693.3z"/>
<path class="st0" d="M1267.9,425.6c-12.6-3.5-37.9-10.6-50.5-14.1c-0.4-0.1-2.2-1.1-2.2-1.1l-1.1,4.1l-24.6,88.1l-2.1,7.6
	c0,0,1.7,0.9,2.2,1.1c12.6,3.5,37.9,10.6,50.5,14.1c0.5,0.1,1.8,0,1.8,0l1.6-5.7l24.8-88.7l1.5-5.4
	C1269.7,425.7,1268.4,425.8,1267.9,425.6z M1238.2,421.2l6.6,1.9c0.3,0.1,0.5,0.5,0.4,0.9c-0.1,0.3-0.5,0.6-0.8,0.5l-6.6-1.9
	c-0.3-0.1-0.5-0.5-0.4-0.9C1237.5,421.4,1237.9,421.1,1238.2,421.2z M1219.2,508l-3.4-1.4l0.5-2l3.6,0.6L1219.2,508z M1240.6,508
	l-43.2-12l20.7-74.3l43.2,12.1L1240.6,508z"/>
<g class="st1">
	<path class="st2" d="M734.2,750.6C734.2,750.6,734.2,750.6,734.2,750.6C734.2,750.6,734.2,750.6,734.2,750.6z"/>
	<path class="st2" d="M734.4,750.4c0.3-0.6-0.3-1.9-0.5-2.4c-0.5-1.5-1.1-3-1.6-4.5c-1.7-4.7-3.3-9.3-5-14c-2.5-7-5.3-14.1-7.7-21.1
		c-0.2-0.6,0.7-3,1-3.5c1.1-3.1,2.3-6.2,3.4-9.2c3.5-9.4,7-18.8,10.5-28.1c3.5-9.4,7-18.7,10.5-28.1c1.1-3,2.3-6.1,3.4-9.1
		c0.5-1.3,1.4-2.3,1.6-3.7c0.6-4.4-6.1-5.3-9.1-6.4c-7-2.6-13.9-5.2-20.9-7.8c-19.7-7.3-39.3-14.6-59-22
		c-13.1-4.9-26.2-9.8-39.3-14.6c-2.3-0.9-5.6-1.7-6.7,1.1c-0.5,1.3-0.9,2.5-1.4,3.8c-2.8,7.6-5.7,15.2-8.5,22.8
		c-6.4,17.3-12.9,34.5-19.3,51.8c-0.2,0.5-0.2,2.8-0.7,3.1c-2.3,1.3-4.3,2.6-6.6,3.9c-8.6,4.9-17.2,9.9-25.8,14.8
		c-1.2,0.7-2.4,1.4-3.7,2.1c-0.5,0.3-1.6,0.7-1.7,1.4c-0.4,1.7-0.7,3.3-1.1,5c-0.2,1-0.9,2.6-0.6,3.6c0.1,0.5,0.5,0.8,0.9,1.1
		c0.7,0.5,0.8,0.9,1.6,1.3c0.2,0,0.3,0.3,0.5,0.4c0.2,0.1,0.4,0.2,0.7,0.3c1.3,0.5,2.5,0.9,3.8,1.4c5.3,2,10.5,3.9,15.8,5.9
		c17.6,6.6,35.3,13.1,52.9,19.7c19.9,7.4,39.7,14.8,59.6,22.2c13.4,5,26.7,9.9,40.1,14.9c0.7,0.2,4.6,1,4.7,1.5c0,0,0.1-0.1,0.1-0.1
		c-0.2,0.5,3.8,0.4,3.7,0.4C730.4,758.4,734,751,734.4,750.4C734.5,750.1,734.4,750.4,734.4,750.4z M716,704
		c-2.4-1.3-6.2-2.3-9.4-3.5c-7.5-2.8-14.9-5.6-22.4-8.3c-19.7-7.3-39.4-14.7-59.2-22c-10.8-4-21.7-8.1-32.5-12.1
		c-0.2-0.1-0.7-0.3-0.8-0.3c5.2-14.1,10.5-28.1,15.7-42.2c3.3-8.9,6.6-17.8,9.9-26.7c0.9-2.4,1.8-4.7,2.6-7.1c0.3-0.8,0-0.7,0.9-0.4
		c12.6,4.7,25.1,9.4,37.7,14c19.7,7.3,39.3,14.7,59,22c7,2.6,14,5.2,20.9,7.8c1.8,0.7,3.6,1.3,5.4,2c0.6,0.2,0.8-0.5,0.6,0.1
		c-5.8,15.5-11.5,30.9-17.3,46.4C723.5,683.8,719.8,693.9,716,704z M730.1,757.9C730.1,757.9,730.2,757.9,730.1,757.9L730.1,757.9z
		 M733.7,750.8C733.6,750.8,733.7,750.8,733.7,750.8C733.7,750.8,733.7,750.8,733.7,750.8z M733.9,750.8
		C733.9,750.8,733.9,750.8,733.9,750.8C733.9,750.8,733.9,750.8,733.9,750.8z M734,750.7C734,750.7,734,750.7,734,750.7
		C734,750.7,734,750.7,734,750.7z"/>
	<path class="st2" d="M734.4,750.4C734.4,750.4,734.4,750.4,734.4,750.4C734.4,750.4,734.4,750.4,734.4,750.4z"/>
</g>
<path class="st0" d="M1455-104.4c0.3-2.4-1.4-4.6-3.9-4.9l-186.2-21.9c-2.4-0.3-4.6,1.4-4.9,3.9l-13.4,113.3
	c-0.3,2.4,1.4,4.6,3.9,4.9l186.2,21.9c2.4,0.3,4.6-1.4,4.9-3.9L1455-104.4z M1346.7-4.1l-2.3-0.3l0.3-2.5l2.4-0.5L1346.7-4.1z
	 M1343.6-4.4l-2.3-0.3l0.2-1.8l2.4-0.3L1343.6-4.4z M1341.3-4.7l2.3,0.3l-0.3,2.4l-2.2-0.8L1341.3-4.7z M1344-1.8l0.3-2.6l2.3,0.3
	l-0.4,3.3L1344-1.8z M1431.1-0.4l-171.2-20.2l11.3-96l171.2,20.2L1431.1-0.4z"/>
<path class="st0" d="M599.9-51.4c0.4-3.8-2.5-7.3-6.4-7.7l-52.6-5.5c-3.9-0.4-7.4,2.4-7.8,6.2L520.4,62.7c-0.4,3.8,2.5,7.3,6.4,7.7
	l52.6,5.5c3.9,0.4,7.4-2.4,7.8-6.2L599.9-51.4z M585.8,69.3c-0.3,3.1-3.3,5.5-6.4,5.2L526.8,69c-3.1-0.3-5.3-3.2-5-6.4l0.4-4l64,6.7
	L585.8,69.3z M525.8,52l10.9-104.4l58.5,6.1L584.2,58.1L525.8,52z M598.2-48.8l-64-6.7l0.3-2.8c0.3-3.1,3-5.3,6.2-5l52.6,5.5
	c3.1,0.3,5.6,3.1,5.3,6.2L598.2-48.8z"/>
<path class="st0" d="M388.6,399.6l6.8-3.8c0.4-0.2,0.6-0.7,0.4-1.1c-0.2-0.4-0.7-0.5-1.1-0.2l-7.1,4c-2.2-2.4-4.9-4.5-8.1-6.1
	c-3.2-1.6-6.5-2.5-9.8-2.7l-1.2-8c-0.1-0.5-0.5-0.8-0.9-0.7c-0.4,0.1-0.7,0.5-0.6,0.9l1.1,7.7c-7.8-0.2-15,3.2-18.7,9.5l43,21.2
	C395.1,413.4,393.4,405.6,388.6,399.6"/>
<path class="st0" d="M364.9,399.2c-1.3-0.6-1.9-2.2-1.2-3.6c0.7-1.3,2.2-1.9,3.6-1.2c1.3,0.6,1.9,2.2,1.2,3.6
	C367.8,399.3,366.2,399.9,364.9,399.2"/>
<path class="st0" d="M382.9,408.1c-1.3-0.6-1.9-2.2-1.2-3.6c0.6-1.3,2.2-1.9,3.6-1.2c1.3,0.6,1.9,2.2,1.2,3.6
	C385.8,408.2,384.2,408.7,382.9,408.1"/>
<path class="st0" d="M333.3,424.8c-1.3,2.7-4.5,3.7-7.2,2.4l0,0c-2.7-1.3-3.7-4.5-2.4-7.2l9.6-19.4c1.3-2.7,4.5-3.7,7.2-2.4l0,0
	c2.7,1.3,3.7,4.5,2.4,7.2L333.3,424.8z"/>
<path class="st0" d="M347.9,402.1l-17.3,35.1c-1,2.1-0.2,4.6,1.9,5.6l4.5,2.2l-5.3,10.8c-1.3,2.7-0.2,5.9,2.4,7.2
	c2.7,1.3,5.9,0.2,7.2-2.4l5.3-10.8l7.4,3.6l-5.3,10.8c-1.3,2.7-0.2,5.9,2.4,7.2c2.7,1.3,5.9,0.2,7.2-2.4l5.3-10.8l4.5,2.2
	c2.1,1,4.6,0.2,5.6-1.9l17.3-35.1L347.9,402.1z"/>
<path class="st0" d="M381.8,448.8c-1.3,2.7-0.2,5.9,2.4,7.2l0,0c2.6,1.3,5.9,0.2,7.2-2.4l9.6-19.4c1.3-2.6,0.2-5.9-2.4-7.2l0,0
	c-2.7-1.3-5.9-0.2-7.2,2.4L381.8,448.8z"/>
<g class="st1">
	<path class="st2" d="M1048.8,374.9c-1.8-1-3.3-2.3-4.5-3.9c-0.8-1-1.6-2.1-2.5-3.1c-0.9-1-2-2-3.2-2.7c-1.8-1.2-3.8-2.1-6-2.6
		c-1.4-0.3-2.8-0.5-4.2-0.6c-1.6-0.1-3.1-0.3-4.6-0.8c-1.9-0.6-3.5-1.5-4.8-3c-1.1-1.3-1.8-2.7-2.4-4.2c-0.9-2.4-1.4-5-1.7-7.5
		c-0.6-3.9-0.8-7.8-0.6-11.7c0.3-5.3,1.2-10.6,2.9-15.7c0.6-1.8,1.2-3.5,2-5.2c0.6-1.3,1.2-2.5,1.9-3.7c1.7-3,3.8-5.8,6.4-8.2
		c3.2-3,6.8-5.1,11-6.2c4.3-1.1,8.5-1,12.7,0.3c1.1,0.3,2.1,0.8,3.1,1.3c1.9,0.9,3.4,2.2,4.9,3.7c1.4,1.4,2.6,3,3.9,4.5
		c0.5,0.6,1.1,1.2,1.6,1.7c1,0.9,2.1,1.5,3.4,1.7c1.7,0.3,3.4,0.5,5.1,0.7c2,0.3,3.9,0.6,5.9,1.1c1.3,0.4,2.5,0.8,3.7,1.5
		c3.5,1.9,6.4,4.5,8.7,7.8c1.8,2.8,2.9,5.8,3.3,9.1c0,0.2-0.1,0.3-0.2,0.3c-2.7,0.2-5.3,0.9-7.8,2c-3.1,1.4-5.6,3.4-7.7,6.1
		c-1.1,1.5-2,3.1-2.7,4.9c-1,2.4-1.5,4.9-1.5,7.4c0,2.9,0.6,5.6,1.7,8.3c0.7,1.6,1.5,3.1,2.6,4.5c0.2,0.2,0.1,0.3,0,0.5
		c-1.6,1.5-3.3,2.9-5,4.2c-3.9,2.9-8.2,5.1-12.6,7c-1.8,0.8-3.6,1.3-5.5,1.6c-2,0.3-4,0.1-5.9-0.6
		C1049.6,375.2,1049.1,375.1,1048.8,374.9z"/>
	<path class="st2" d="M1069,301.7c1.2-2.1,2.8-3.9,4.7-5.4c2.2-1.7,4.5-3,7.2-3.8c2.1-0.6,4.2-0.9,6.4-0.9c2,0,3.9,0.3,5.8,0.9
		c0.6,0.2,1.2,0.4,1.8,0.7c0.2,0.1,0.2,0.2,0.1,0.3c-0.3,0.8-0.7,1.6-1.2,2.3c-0.7,1.1-1.4,2.1-2.3,3c-2.4,2.5-5.2,4.3-8.4,5.5
		c-2.5,0.9-5,1.3-7.6,1.2c-1.9-0.1-3.7-0.5-5.5-1.2c-0.6-0.2-1.1-0.5-1.7-0.9c-0.1-0.1-0.2-0.2-0.1-0.3
		C1068.5,302.6,1068.7,302.1,1069,301.7z"/>
</g>
<path class="st0" d="M779.3,159.2l10.2,25.7l-28.4,7l-8.7-22L779.3,159.2z M767.6,129.9l10.3,26L751,166.6l-8.9-22.3L767.6,129.9z
	 M818,143.8l12.3,31l-37.8,9.3L782.2,158L818,143.8z M804.3,109.1l12.5,31.4l-35.8,14.2l-10.5-26.4L804.3,109.1z"/>
<path class="st0" d="M914.8,671.9c15,5.8,22.4,22.7,16.6,37.6c-1.4,3.6-3.4,6.7-5.9,9.3c10.3,7.6,14.8,21.3,9.9,33.9
	c-5.8,15-22.7,22.4-37.6,16.6l-76.8-29.8c-12.5-4.8-18.7-18.9-13.8-31.4s18.9-18.7,31.4-13.8c0.7,0.3,1.3,0.7,1.9,1
	c-0.2-3.3,0.3-6.7,1.6-10c4.8-12.5,18.9-18.7,31.4-13.8c4.1,1.6,7.4,4.2,10,7.4C891.2,670.7,903.5,667.6,914.8,671.9 M918.3,662.9
	c-11.6-4.5-24.3-3.2-34.5,3.2c-2.1-1.5-4.5-2.7-6.9-3.7c-17.4-6.8-37.1,1.9-43.9,19.3c-0.2,0.4-0.3,0.9-0.5,1.3
	c-14.6-1.2-28.8,7.2-34.4,21.5c-6.8,17.4,1.9,37.1,19.3,43.9l76.8,29.8c19.9,7.7,42.4-2.2,50.2-22.1c5.1-13.2,2.5-27.9-6.2-38.5
	c0.8-1.5,1.6-3,2.2-4.6C948.1,693.2,938.2,670.7,918.3,662.9L918.3,662.9z"/>
<path class="st3" d="M826.1,267.1c-30,11.5-45,45.1-33.6,75.2c8.9,23.3,31.2,37.6,54.7,37.4l-0.3-38.2c-8.1,0.1-15.8-4.8-18.8-12.9
	c-3.9-10.3,1.2-21.9,11.5-25.8c10.3-3.9,21.9,1.2,25.8,11.5c3.1,8,0.6,16.8-5.4,22.1l25.3,28.6c17.6-15.6,24.7-41.1,15.8-64.4
	C889.8,270.7,856.2,255.6,826.1,267.1z"/>
<path class="st0" d="M801.4,428c0.8,2.2-0.3,4.8-2.5,5.6c-2.3,0.9-4.8-0.3-5.6-2.5l-2.3-5.9c-0.8-2.2,0.3-4.8,2.5-5.6
	c2.3-0.9,4.8,0.3,5.6,2.5L801.4,428z M805.4,426.4l-2.3-5.9c-1.8-4.6-6.2-6.5-11.1-4.6c-4.9,1.9-7,6.2-5.2,10.8l2.3,5.9
	c1.8,4.6,6.2,6.5,11.1,4.6C805.2,435.4,807.2,431.1,805.4,426.4z"/>
<path class="st0" d="M819.8,420.4c0.8,2.2-0.2,4.8-2.5,5.6c-2.3,0.9-4.8-0.3-5.6-2.5l-1.9-5c-0.9-2.2,0.3-4.8,2.5-5.6
	c2.3-0.9,4.8,0.3,5.6,2.5L819.8,420.4z M823.8,418.9l-1.9-5c-1.8-4.6-6.2-6.5-10.8-4.7c-2.7,1-3.4,3-4,3.2c-0.2,0.1-0.4-0.1-0.5-0.4
	l-0.2-0.5c-0.1-0.3-0.3-0.4-0.6-0.3l-2.7,1c-0.3,0.1-0.4,0.3-0.3,0.6l11.4,29.7c0.1,0.3,0.3,0.4,0.6,0.3l3.2-1.2
	c0.3-0.1,0.4-0.3,0.3-0.6l-4.1-10.7c-0.1-0.3-0.1-0.5,0.2-0.6c0.4-0.2,2.3,0.8,5-0.2C823.5,427.8,825.5,423.3,823.8,418.9z"/>
<path class="st0" d="M835.3,408.8l-7.2,2.8c-0.4,0.2-0.5,0-0.7-0.5c-0.8-2,0.4-4.6,2.6-5.4c2.1-0.8,4.8,0.3,5.5,2.2
	C835.7,408.4,835.7,408.6,835.3,408.8z M840.9,409.7l-1.2-3.2c-1.6-4.1-6.6-6.3-11.1-4.6c-4.5,1.7-6.8,6.7-5.2,10.8l2.3,5.9
	c1.8,4.6,6.2,6.5,11.1,4.6c2.4-0.9,4.1-2.3,4.9-4.1c0.9-1.8,1-3.2,0.8-3.5c-0.1-0.1-0.2-0.2-0.4-0.2l-3.4-0.4c-0.1,0-0.2,0-0.3,0
	c-0.3,0.1-0.4,1-0.9,2.5c-0.3,0.8-1,1.5-2.1,1.9c-2.3,0.9-4.8-0.3-5.6-2.5l-0.7-1.8c-0.1-0.3,0-0.5,0.3-0.6l11.3-4.3
	C840.9,410.3,841,410.1,840.9,409.7z"/>
<path class="st0" d="M862.5,412.9l-3.2,1.2c-0.3,0.1-0.5,0-0.6-0.3l-4.7-12.2c-0.8-2.2-3.3-3.4-5.6-2.5c-2.3,0.9-3.4,3.4-2.5,5.6
	l4.7,12.2c0.1,0.3,0,0.5-0.3,0.6l-3.2,1.2c-0.3,0.1-0.5,0-0.6-0.3L839,399c-0.1-0.3,0-0.5,0.3-0.6l2.7-1c0.3-0.1,0.5,0,0.6,0.3
	l0.2,0.5c0.1,0.3,0.3,0.4,0.5,0.4c0.6-0.2,1.3-2.2,4-3.2c4.6-1.8,9,0.1,10.8,4.7l4.7,12.2C862.9,412.6,862.8,412.8,862.5,412.9z"/>
<path class="st0" d="M868.5,393.3c0.7,1.9,2.4,2.2,5.8,1.7c5.6-0.9,8.8-1.3,10.3,2.5c1.5,3.9-0.3,7.6-4.7,9.3l-1.4,0.5
	c-4.2,1.6-7.9,0.1-8.5-1.3c-0.1-0.1,0-0.3,0.2-0.4l1.4-1.5c0.1-0.1,0.2-0.1,0.2-0.1c0.1-0.1,0.3,0,0.5,0.1c1.7,0.9,3.1,1.7,5.3,0.9
	l1.4-0.5c2.5-1,3.6-3,2.9-4.9c-0.6-1.7-2.4-2.1-5.7-1.6c-5.7,0.9-8.7,1.5-10.3-2.5c-1.4-3.7,0.4-7.4,4.6-9l1.4-0.5
	c4.1-1.6,7.9-0.2,8.4,1.2c0.1,0.1,0,0.3-0.2,0.4l-1.4,1.5c-0.1,0.1-0.1,0.1-0.2,0.1c-0.1,0.1-0.3,0-0.5-0.1
	c-1.8-0.9-3.2-1.6-5.3-0.8l-1.4,0.5C868.8,389.8,867.8,391.5,868.5,393.3z"/>
<path class="st0" d="M898.9,391c1,2.6-0.3,5.7-3,6.7c-2.7,1-5.7-0.4-6.7-3l-2.3-6.1c-1-2.7,0.2-5.6,3-6.6c2.7-1,5.7,0.4,6.7,2.9
	L898.9,391z M902,389.8l-2.3-6.1c-1.7-4.4-6-6.2-10.8-4.3c-4.8,1.8-6.7,5.9-5,10.4l2.3,6.1c1.7,4.5,5.9,6.3,10.7,4.4
	C901.7,398.4,903.7,394.2,902,389.8z"/>
<path class="st0" d="M922.3,390l-1.7,0.6c-0.3,0.1-0.5,0-0.6-0.3l-0.7-1.9c-0.1-0.3-0.4-0.4-0.6-0.4c-0.4,0.2-0.6,1.1-1.1,2.2
	c-0.6,1.2-1.7,2.2-3.2,2.8c-4.1,1.6-8.5-0.2-10.2-4.6l-4.6-12.1c-0.1-0.3,0-0.5,0.3-0.6l2.1-0.8c0.3-0.1,0.5,0,0.6,0.3l4.6,12.1
	c1,2.6,4,4,6.7,3c2.8-1.1,4.1-4,3-6.7l-4.6-12.1c-0.1-0.3,0-0.5,0.3-0.6l2.1-0.8c0.3-0.1,0.5,0,0.6,0.3l7.3,19.1
	C922.7,389.7,922.6,389.9,922.3,390z"/>
<path class="st0" d="M930.1,367.8c-0.4,0.1-1,0.2-1.8,0.5c-2.8,1.1-4,3.9-3,6.6l4.5,11.7c0.1,0.3,0,0.5-0.3,0.6l-2.2,0.8
	c-0.3,0.1-0.5,0-0.6-0.3l-7.3-19.1c-0.1-0.3,0-0.5,0.3-0.6l1.7-0.6c0.3-0.1,0.5,0,0.6,0.3l0.9,2.3c0.1,0.3,0.4,0.4,0.6,0.4
	c0.5-0.2,0.8-1.6,1.9-3.5c0.3-0.6,1.2-1.3,1.8-1.6l1.7-0.6c0.3-0.1,0.5,0,0.6,0.3l0.9,2.3C930.4,367.5,930.4,367.7,930.1,367.8z"/>
<path class="st0" d="M950.3,375.3c0.6,1.4-1.2,5-5.5,6.7c-4.8,1.8-9,0.1-10.7-4.4l-2.3-6.1c-1.7-4.5,0.2-8.5,5-10.4
	c4.2-1.6,8-0.3,8.6,1.2c0.1,0.1,0,0.3-0.2,0.5l-1.5,1.7c-0.1,0.1-0.1,0.1-0.2,0.1c-0.1,0.1-0.2,0-0.4,0c-1.8-0.7-3.2-1.6-5.3-0.8
	c-2.8,1.1-4,4-3,6.6l2.3,6.1c1,2.6,3.9,4.1,6.7,3c1.1-0.4,2-1.3,2.5-2.4c0.6-1.3,0.8-2.1,1-2.2c0,0,0.1-0.1,0.2,0l2.3,0.2
	C950.2,375,950.2,375.1,950.3,375.3z"/>
<path class="st0" d="M961.2,360.8c0.1,0.3,0,0.5-0.3,0.6l-8.7,3.3c-0.3,0.1-0.5,0-0.6-0.3l-0.2-0.6c-1-2.7,0.2-5.6,3-6.6
	c2.7-1,5.7,0.4,6.7,2.9L961.2,360.8z M965.1,361.8l-1.1-2.8c-1.5-3.9-6.4-6-10.8-4.3c-2.3,0.9-3.9,2.4-4.8,4.6
	c-0.8,2-0.9,4.1-0.2,5.8l2.3,6.1c1.7,4.5,5.9,6.3,10.7,4.4c4.3-1.6,6-5.2,5.5-6.7c-0.1-0.2-0.1-0.3-0.4-0.3l-2.3-0.2
	c-0.1,0-0.2,0-0.2,0c-0.3,0.1-0.4,0.9-1,2.2c-0.5,1.1-1.4,1.9-2.5,2.4c-2.7,1-5.6-0.4-6.7-3l-0.9-2.4c-0.1-0.3,0-0.5,0.3-0.6
	l11.8-4.5C965.1,362.3,965.2,362.1,965.1,361.8z"/>
<g class="st1">
	<path class="st2" d="M1112.3,173.3c0.5-0.5,1.1-1,1.6-1.6c2.8-3.1,6.2-5.1,9.9-6.7c10-4.5,20.3-4.8,30.7-1.5
		c5.4,1.7,10.2,4.4,14.5,8.1c6.1,5.1,10.8,11.4,13.9,18.7c2.2,5.2,3.3,10.6,3.5,16.2c0.3,6.5-0.4,12.8-1.6,19.2
		c-0.2,0.9-0.2,0.9,0.7,0.7c3.8-0.7,7.6-1.2,11.4-1.4c11.5-0.6,22.3,1.6,31.9,8.3c6.8,4.8,12.3,10.7,15.9,18.3
		c2.6,5.5,4.1,11.3,4.3,17.4c0.3,7.2-1.2,13.9-4.4,20.3c-1.5,3.1-3.5,5.9-5.7,8.5c-5.1,5.8-11.4,9.9-18.7,12.1
		c-8.3,2.5-16.6,2.5-24.8,0c-5.7-1.7-10.9-4.5-15.5-8.3c-5.5-4.6-10.3-9.9-13.4-16.4c-2.5-5.3-3.8-10.9-4.1-16.7
		c-0.4-7.3,0.7-14.4,2.2-21.5c0.2-1,0.2-1-0.8-0.8c-5.8,1.2-11.7,2-17.6,2c-9.9,0-19.1-2.5-27.1-8.6c-3.4-2.6-6.3-5.6-9-8.8
		c-3.9-4.6-6.7-9.8-8.4-15.5c-1.1-3.7-1.8-7.5-1.9-11.3c-0.2-6.9,1.1-13.4,4.1-19.6c1.6-3.4,3.6-6.6,6.4-9.1
		C1111,174.6,1111.6,173.9,1112.3,173.3z M1124,224c3,3.3,6.4,5.7,10.3,7.3c4.8,1.9,9.8,2.3,14.9,2c6.4-0.4,12.6-1.8,18.8-3.2
		c0.5-0.1,0.7-0.4,0.8-0.9c1.4-6.4,2.7-12.8,2.8-19.3c0-3.7-0.3-7.4-1.4-11c-2.1-6.9-6.1-12.4-11.8-16.8c-7.1-5.4-15.1-7.3-23.7-5.2
		c-9.3,2.2-15.6,8.1-18.8,17.1c-2.3,6.5-1.8,13,0.7,19.4C1118.4,217.5,1121,221.1,1124,224z M1186,287.1c1.3,1.4,2.7,2.7,4.3,3.9
		c5.9,4.5,12.5,6.5,19.9,5.9c8.1-0.7,14.8-4.3,19.3-11.1c6.2-9.1,6.3-18.8,1.5-28.5c-1.9-3.9-4.8-7-8.1-9.8c-3.3-2.8-7-4.9-11.2-6.2
		c-4.5-1.4-9-1.7-13.7-1.5c-5.6,0.3-11.2,1.3-16.7,2.5c-0.4,0.1-0.6,0.3-0.7,0.7c-1.1,4.4-2.1,8.8-2.8,13.2c-0.7,4.3-1,8.6-0.7,12.9
		C1177.9,276.1,1180.8,282.1,1186,287.1z"/>
	
		<rect x="1128.8" y="201.2" transform="matrix(0.7011 0.7131 -0.7131 0.7011 487.6924 -754.4166)" class="st2" width="29.8" height="6.6"/>
	
		<rect x="1201.3" y="254.4" transform="matrix(0.7011 0.7131 -0.7131 0.7011 550.5904 -780.0405)" class="st2" width="8.6" height="24.5"/>
	
		<rect x="1193.4" y="262.4" transform="matrix(0.7011 0.7131 -0.7131 0.7011 550.59 -780.034)" class="st2" width="24.5" height="8.6"/>
</g>
<g class="st1">
	<path class="st2" d="M786.1,496.8c-5.6,14.2-11.2,28.3-16.8,42.5c-4.4,5.6-10.1,8.5-17.4,7.9c-74.2-29.4-148.4-58.8-222.5-88.2
		c-2.7-2.2-4.8-4.7-6.1-7.9c-1.3-3.2-1.3-6.4-1.2-9.7c5.6-14.2,11.2-28.3,16.8-42.5c4.6-6.2,10.8-8.8,18.4-8
		c73.6,29.2,147.3,58.4,220.9,87.5c1.1,1,2.3,1.9,3.3,3C785.5,485.7,786.7,491,786.1,496.8z M618.3,486.5c0.4,0.2,0.8,0.3,1.2,0.5
		c43.1,17.1,86.1,34.1,129.2,51.2c6.4,2.5,12.8-0.1,15.4-6.4c4.3-10.6,8.5-21.2,12.7-31.9c3-7.7,0.3-14-7.4-17
		c-36.4-14.5-72.8-28.9-109.2-43.3c-7.9-3.1-14.1-0.3-17.3,7.6c-4,9.9-8,19.9-11.8,29.9C628.8,482.9,624.9,486.2,618.3,486.5z
		 M605.7,450.8c-2.1,5.3-4.2,10.7-6.4,16c-0.8,1.9,0,2.6,1.7,3.3c1.6,0.6,2.8,0.9,3.5-1.2c0.5-1.5,1.1-3.1,1.8-4.5
		c1.1-2.4,1.1-5.9,3.4-7c2.3-1,4.9,1.4,7.4,2.2c0.9,0.3,1.8,0.7,2.7,1c5.7,1.8,10.3,0.5,13.2-4.1c1.6-2.5,2.7-5.3,3.1-8.2
		c0.7-4.8-1.4-8.8-5.8-10.8c-4-1.8-8.2-3.4-12.3-5c-3.3-1.3-4.7-0.7-6,2.7C609.8,440.4,607.8,445.6,605.7,450.8z M569,413.2
		C569,413.3,569,413.3,569,413.2c-1.9-0.7-3.7-1.5-5.6-2.1c-5.5-1.9-12.3,0.3-15.1,5.3c-3.3,5.7-5.7,11.9-7.2,18.3
		c-1.4,5.9,2.1,12.2,7.5,14.6c3.7,1.6,7.6,3,11.3,4.5c1.3,0.5,2.2,0.5,2.9-1c0.6-1.5,0.1-2.3-1.4-2.9c-3.2-1.2-6.5-2.5-9.7-3.9
		c-3.8-1.6-5.5-4.7-5.7-8.7c-0.1-1.6,0.5-3,1.1-4.5c1.4-3.6,1.4-3.6,4.9-2.2c3.8,1.5,7.7,3.1,11.5,4.5c1.7,0.6,2.8-0.2,2.8-1.9
		c0-1.3-1-1.6-1.8-1.9c-4-1.6-8.1-3.2-12.1-4.9c-0.9-0.4-2.1-0.6-1.9-2c0.6-6.3,6.6-10.7,12.7-9.2c3.7,0.9,7,2.7,10.6,3.9
		c1.2,0.4,2.1,0.3,2.7-1c0.5-1.3,0-2.1-1.2-2.6C573.1,414.9,571.1,414.1,569,413.2z M577.1,460.6c2.3,0.9,4.7,1.8,7,2.8
		c3.3,1.4,6.2,0.8,8.9-1.4c2.7-2.2,4.2-5.2,4.8-8.5c1.2-6-2-9.8-6.7-12.8c-2.3-1.5-4.7-2.8-6.7-4.6c-1.9-1.7-2.6-3.7-1.8-6.2
		c1.3-3.9,3.8-5.2,7.7-3.9c3.4,1.2,6.7,2.6,10.1,3.9c1.2,0.5,2.1,0.3,2.7-1c0.5-1.3,0.2-2.2-1.1-2.7c-4.5-1.8-9-3.6-13.6-5.3
		c-2.4-0.8-4.7-0.3-6.7,1.2c-6,4.3-6.4,12.5-0.8,17.3c2.4,2,5.2,3.4,7.7,5.2c4.6,3.3,5.2,6.3,2.6,11.2c-1.7,3.1-4.1,4.1-7.4,2.8
		c-4.3-1.6-8.5-3.3-12.8-5.1c-1.4-0.6-2.2-0.3-2.8,1.2c-0.6,1.4-0.1,2.2,1.2,2.7C572.1,458.6,574.6,459.6,577.1,460.6z"/>
	<path class="st2" d="M663.6,450.6c3.1,1,6.1,2.2,7.8,5.4c2.4,4.6,0.5,11.9-4,15c-1.3,0.9-1.7,1.5-1.1,3.2c1.9,5.3-0.1,10-3.6,13.8
		c-3.4,3.7-7.8,3.8-12.3,2c-2.3-0.9-4.8-1.6-6.9-3c-4.5-2.9-6.1-7.6-4.2-12.7c1.4-3.7,2.8-7.4,7-8.8c0.9-0.3,0.9-1.1,0.7-1.8
		c-1.2-4.3,0.6-8,2.9-11.4c2.1-3.1,6.2-4.2,9.9-3.1C661.1,449.5,662.3,450.1,663.6,450.6z M655.5,471
		C655.5,470.9,655.5,470.9,655.5,471c-0.7-0.3-1.3-0.6-2-0.9c-3.6-1.3-6.2-0.2-7.8,3.3c-0.4,0.9-0.8,1.9-1.1,2.9
		c-1.2,3.4-0.2,6.1,3,7.8c1.7,0.9,3.5,1.7,5.4,2c3,0.6,5.5-0.4,6.7-3c1.5-3.1,3.2-6.3,0.4-9.7c-0.5-0.5-1.1-1-1.7-1.3
		C657.4,471.6,656.5,471.3,655.5,471z M662.1,454.6c-4.1-1.6-6.1-1.4-7.9,1c-1.1,1.5-1.8,3.2-2,5.1c-0.3,2.6,0.7,4.3,3.5,5.4
		c2.9,1.2,6.2,3.5,8.9,0.1C667.6,462.2,669.2,456.7,662.1,454.6z"/>
	<path class="st2" d="M705.3,489.9c1.2-3.4,2.6-6.4,4.1-9.4c2.3-4.5,5.9-6.6,11-6.2c5.6,0.5,10.6,2.5,15,5.9c1.4,1,1.5,1.9,0.4,3.2
		c-1.1,1.3-1.9,2.2-3.5,0.7c-3.2-2.9-6.9-4.4-11.2-4.9c-3.9-0.4-7.8,2.8-8.2,6.7c-0.1,1.2,0.7,1.5,1.6,1.8c2.9,1.2,6,1.9,8.9,3.4
		c6.4,3.4,8.5,10.4,4.9,16.5c-5.3,9-17.1,9.9-23.7,1.7c-3.5-4.3-3-9-1.4-13.9C703.8,493.6,704.6,491.6,705.3,489.9z M708.9,496.1
		c-0.4,1.1-0.9,2.2-1.3,3.3c-1.1,3.5-0.1,6.6,2.6,8.7c5.7,4.3,11.6,2.6,14.2-4c1.3-3.4,0.7-5.9-2.2-8.2c-1.9-1.5-4.1-2.3-6.3-3.1
		C710.3,490.9,710.9,490.3,708.9,496.1z"/>
	<path class="st2" d="M736.8,501.7c1.5-3.4,2.5-7.1,4.6-10.3c2.1-3.1,4.9-4.9,8.7-4.8c6.3,0.2,11.8,2.3,16.7,6.2
		c1.5,1.2,0.9,2,0,3.1c-0.9,1.1-1.6,2.2-3.2,0.8c-3.2-2.8-7-4.6-11.3-5c-3.5-0.3-5.5,0.6-7,3.8c-1.9,4.1-2.9,3.6,2.2,5.5
		c2.1,0.8,4.2,1.3,6.2,2.4c7.4,3.9,9.4,10.7,5.1,17.8c-3.6,5.9-8.9,7.7-16.1,5.4c-8.3-2.6-11.8-9.9-8.7-18
		C735,506.2,735.9,503.9,736.8,501.7z M747.6,505.6c-1.3-0.5-2.6-1-3.9-1.5c-1.3-0.5-2.1-0.2-2.6,1.1c-0.7,1.9-1.5,3.7-2.1,5.6
		c-1.3,4.2-0.5,7.5,2.3,9.6c5.5,4.3,11.4,2.8,14.1-3.6c1.6-3.7,0.9-6.2-2.3-8.7C751.3,506.8,749.4,506.2,747.6,505.6z"/>
	<path class="st2" d="M680.1,501.7c-3.4-1.4-6.9-2.8-10.3-4.1c-1.7-0.6-2.1-1.6-1.6-3.3c1.6-5.7,5.4-9.4,10.8-11.5
		c3.1-1.2,6.4-1.7,9.7-2.3c1.5-0.3,3.1-0.5,4.5-1c3.8-1.1,5.3-2.9,5.3-5.8c-0.1-3.3-2.5-6.2-5.8-7c-2.7-0.7-5.4-1-8.1-0.7
		c-2,0.2-2-1-2.2-2.4c-0.2-1.6,0.4-2.3,2-2.3c5.2-0.1,10.2,0.7,14.5,3.7c3.7,2.5,5.3,6.1,4.9,10.5c-0.4,4.2-3.1,6.7-6.9,8.2
		c-3.5,1.4-7.3,1.7-11,2.4c-3.9,0.7-7.4,2.1-10,5.2c-2.2,2.6-2,3.3,1,4.5c5,2,10,4,15,6c1.4,0.6,2.2,1.1,1.5,2.9
		c-0.7,1.8-1.7,1.7-3.1,1.1C687,504.4,683.6,503.1,680.1,501.7z"/>
	<path class="st2" d="M614,444.7c0.8-2.1,1.7-4.1,2.4-6.2c0.5-1.3,1.3-1.6,2.6-1.2c2.9,1.1,5.8,2.2,8.5,3.7c0.7,0.4,1.4,0.9,1.8,1.6
		c2.9,3.8,0.7,7.3-0.9,10.7c-1.4,2.8-3.7,3.8-6.8,3.3c-3.3-0.6-6.3-2.1-9.3-3.4c-1.2-0.5-1.2-1.4-0.8-2.4
		C612.4,448.8,613.2,446.8,614,444.7z"/>
</g>
<path class="st0" d="M951,99.2c-0.5-0.5-0.9-0.9-1.3-1.3c-1-1-1.4-2.2-1.2-3.6c0.1-0.4-0.1-0.6-0.3-0.9c-1.6-1.4-2.5-3.1-2-5.5
	c0.1-0.3-0.1-0.6-0.2-0.9c-0.5-0.9-1-1.9-1.2-2.9c-0.2-1-0.1-1.9,0.2-2.8c0.2-0.5,0.2-0.8,0-1.3c-0.7-1.5-0.7-3.1,0.2-4.7
	c0.3-0.4,0.3-0.8,0.2-1.3c-0.3-1.4-0.5-2.9,0.4-4.2c0.6-0.9,0.7-1.6,0.6-2.6c-0.2-1.7,0.6-2.9,1.9-3.8c0.4-0.2,0.6-0.5,0.6-1
	c0.2-3.4,2.7-5.4,6.2-3.7c0.4,0.2,0.7,0.3,1.2,0.1c1.5-0.7,3.1-0.5,4.5,0c0.3,0.1,0.6,0.2,0.8,0.4c0.6,0.4,1.2,0.5,2,0.2
	c1.1-0.4,2.1,0,3,0.5c0.3,0.2,0.7,0.4,1.1,0.3c1.9-0.5,3.5,0.1,4.8,1.4c0.4,0.4,0.8,0.6,1.5,0.5c1.1-0.2,2.1,0.2,2.9,1
	c0.3,0.3,0.7,0.7,0.9,1c0.5,0.6,1,1,1.8,1.1c1.2,0.1,2,0.8,2.6,1.8c0.4,0.7,1,1.2,1.8,1.4c1.6,0.4,2.5,1.6,2.9,3.3
	c0.3,1,0.7,1.7,1.7,1.9c0.4,0.1,0.7,0.5,0.9,0.9c1.5,2.6,2.1,5.6,2.2,8.7c0.1,1.9,0,3.8-0.3,5.8c0.9-0.9,1.7-1.8,2.6-2.6
	c2.7-2.4,5.6-4.3,9-5.2c0.8-0.2,1.6-0.3,2.3,0.2c0.5,0.3,1,0.3,1.5,0c1.2-0.6,2.4-1,3.7-0.7c0.5,0.1,0.9,0.2,1.3,0.5
	c0.6,0.5,1.3,0.6,2,0.4c1.4-0.3,2.6,0.1,3.6,1c0.3,0.3,0.6,0.4,1,0.4c0.5,0,1,0,1.6,0c1.5,0,2.6,0.6,3.3,1.9
	c0.2,0.3,0.4,0.5,0.8,0.5c1.1,0.1,2.3,0.2,3.2,1c0.2,0.2,0.5,0.3,0.6,0.6c0.6,1.3,1.7,1.8,2.9,2.4c0.7,0.3,1.2,0.9,1.4,1.6
	c0.2,0.5,0.5,0.7,0.9,0.9c0.9,0.4,1.8,0.8,2.6,1.5c0.5,0.4,0.9,0.9,1.2,1.5c0.5,1,1.2,1.7,2.1,2.3c2.4,1.5,2.7,4.2,0.6,6.4
	c-0.5,0.5-0.7,1-0.6,1.6c0.2,1.7-0.5,3-1.9,3.9c-0.7,0.5-1.1,1-1.3,1.9c-0.3,1.4-1.4,2.2-2.5,2.9c-0.7,0.4-1.2,0.8-1.5,1.6
	c-0.5,1.5-1.7,2.3-3.1,2.7c-0.6,0.2-0.9,0.5-1.2,1c-0.5,0.9-1.3,1.6-2.2,2c-0.5,0.3-1.1,0.5-1.7,0.6c-1,0.2-1.8,0.6-2.5,1.4
	c-1.2,1.3-2.7,1.5-4.3,1.4c-0.7-0.1-1.1,0.1-1.6,0.6c-0.9,0.9-2,1.2-3.2,1.1c-0.6,0-1.3-0.1-2-0.2c0.2,0.3,0.3,0.5,0.5,0.8
	c1.8,2.8,3.2,5.8,3.9,9.2c0.7,3.9,0.3,7.8-0.9,11.7c-0.5,1.5-1,3-1.7,4.4c-0.5,1-0.4,2.2,0.1,3.1c2.8,5.3,3.3,11.1,1.8,17.1
	c-1.8,7.3-6.1,12.5-12.5,15.9c-0.3,0.2-0.7,0.4-0.9,0.7c-1.5,2.2-3.3,4.2-5.2,6.2c-1,1.1-1.9,2.3-2.8,3.5
	c-3.8,5.3-8.8,8.6-14.9,10.2c-2,0.5-4,0.8-6,0.7c-0.5,0-0.9,0.2-1.4,0.3c-4.9,1.3-9.9,2-14.9,1.7c-0.5,0-1,0.2-1.4,0.4
	c-4.1,1.6-8.3,2.4-12.6,1.7c-7.4-1.2-12.9-5.1-16.5-11.8c-0.8-1.4-1.4-2.9-1.9-4.4c-0.1-0.4-0.3-0.7-0.6-1
	c-3.3-3.4-5.9-7.4-8.1-11.7c-0.5-1.1-1.2-1.9-1.9-2.9c-3.1-3.9-4.8-8.5-5.2-13.7c-0.3-3.2,0.1-6.4,1-9.6c0.4-1.3,0.4-2.7,0.5-4.1
	c0.3-2.3,0.6-4.5,1.1-6.8c0.1-0.4,0.1-0.8-0.1-1.2c-0.9-3.9-1-7.8,0-11.7c1.7-6.7,5.7-11.7,11.4-15.3c2-1.3,4.2-2.2,6.5-2.7
	c1.1-0.2,1.9-1,2.4-2.1c1.6-3.4,3.6-6.6,6.3-9.2c3.1-3.1,6.8-4.9,10.9-5.8C948.5,99.7,949.7,99.5,951,99.2z M948.4,77.8
	c-0.1,0.3,0,0.5,0.1,0.7c0.5,1.6,1.2,3,2,4.4c0.1,0.3,0.5,0.5,0.3,0.8c-0.2,0.3-0.6,0.1-0.9,0c-0.1,0-0.2-0.1-0.3-0.1
	c-0.3-0.1-0.8-0.5-1-0.3c-0.3,0.3,0.2,0.7,0.3,1.1c0.8,1.7,1.9,3.1,3,4.6c0.1,0.2,0.3,0.3,0.2,0.6c-0.1,0.2-0.4,0.2-0.6,0.2
	c-0.6,0.1-1.1-0.3-1.8-0.5c0.4,0.8,0.8,1.4,1.4,2c0.9,1,1.9,1.9,2.9,2.8c0.4,0.4,0.3,0.6-0.2,0.8c-0.4,0.2-0.9,0-1.4,0.2
	c0.7,1.1,1.7,1.7,2.7,2.3c0.8,0.5,1.7,1,2.5,1.5c0.2,0.1,0.5,0.3,0.4,0.6c0,0.3-0.4,0.4-0.6,0.5c-0.4,0.2-0.8,0.3-1.4,0.4
	c1.2,0.7,2.4,1.1,3.5,1.5c2.4,0.8,4.8,1.4,7.3,1.3c3.1-0.1,5.9-1,8.2-3.4c0.7-0.7,0.8-1.3,0.5-2.2c-1-2.9-2.2-5.8-3.7-8.5
	c-3.1-5.8-6.7-11.3-10.5-16.6c-0.1-0.2-0.3-0.3-0.3-0.7c0.3,0.3,0.6,0.6,0.9,0.9c4.5,4.6,8.5,9.5,12,15c1.8,2.9,3.5,5.9,4.9,9
	c0.1,0.3,0.3,0.5,0.7,0.5c1.3-0.1,2.5-0.4,3.6-1.1c2.4-1.4,3.6-3.7,4.2-6.3c0.8-3.5,0.5-6.8-0.2-10.2c-0.2-0.8-0.3-1.6-0.7-2.3
	c-0.4,0.4-0.7,0.8-1,1.2c-0.3,0.4-0.6,0.3-0.7-0.2c-0.2-0.9-0.4-1.7-0.7-2.6c-0.3-1.1-0.6-2.2-1.1-3.2c-0.4,0.4-0.4,0.8-0.6,1.1
	c-0.3,0.4-0.6,0.9-1.1,0.9c-0.4-0.1-0.3-0.6-0.4-1c-0.4-1.4-1-2.7-1.8-3.9c-0.1,0.7-0.4,1.3-1,1.7c-0.4,0.3-0.7,0.3-0.9-0.3
	c-0.4-0.9-0.8-1.9-1.3-2.7c-0.4-0.7-0.9-1.3-1.6-2c0.2,0.7,0.3,1.1,0.2,1.6c-0.1,0.4-0.3,0.8-0.7,0.9c-0.4,0.1-0.5-0.3-0.7-0.5
	c-0.2-0.3-0.4-0.6-0.6-0.9c-1-1.3-2.1-2.4-3.6-3.4c0.2,0.6,0.4,1,0.5,1.4c0.1,0.5,0.4,1.1-0.2,1.4c-0.5,0.3-0.7-0.3-1-0.5
	c-1.2-1.1-2.4-2.1-3.9-3.1c0.2,0.7,0.4,1.2,0.4,1.7c0,0.3-0.1,0.6-0.4,0.8c-0.3,0.2-0.5,0-0.7-0.2c-0.5-0.4-1-0.9-1.6-1.3
	c-1.1-0.8-2.2-1.5-3.5-1.9c-0.2,0-0.4-0.2-0.5,0c-0.1,0.1,0,0.3,0.1,0.5c0.1,0.3,0.2,0.7,0.3,1c0.1,0.2,0.2,0.4,0,0.5
	c-0.2,0.2-0.4,0-0.5-0.1c-1.6-0.5-3-1.3-4.5-1.9c-0.2-0.1-0.5-0.4-0.7-0.2c-0.2,0.2,0,0.5,0,0.7c0.2,1.5,0.3,2.9,0,4.4
	c-0.1,0.6-0.3,0.7-0.8,0.5c-0.5-0.2-1-0.5-1.4-0.7c-0.3-0.2-0.5-0.1-0.4,0.3c0.1,0.9,0.2,1.7,0.5,2.6c0.3,0.8,0.7,1.6,1,2.4
	c0.2,0.5,0,0.7-0.5,0.7c-0.3,0-0.6-0.1-0.8-0.2c-0.4-0.2-0.8-0.5-1.3-0.8c-0.2,0.4,0,0.7,0,1c0.3,1.6,1,3.1,1.5,4.7
	c0.2,0.6,0,0.8-0.5,0.6C949.5,78.2,949,78,948.4,77.8z M1009.9,84.6c-0.3,0.1-0.5,0.2-0.7,0.2c-1.7,0.6-3.2,1.4-4.8,2.2
	c-0.6,0.3-0.8,0.2-0.7-0.5c0-0.3,0.1-0.6,0.1-1c0.2-0.6-0.1-0.6-0.5-0.4c-0.4,0.2-0.9,0.4-1.3,0.6c-3.3,1.8-6.3,4-8.5,7.1
	c-2.4,3.4-2.5,7.1-0.3,10.1c0.3,0.4,0.6,0.6,1.1,0.4c9.9-3,19.8-3.5,29.8-2.9c0.2,0,0.4,0,0.5,0.2c-0.2,0-0.3,0.1-0.5,0.1
	c-4.6,0.4-9.1,0.9-13.7,1.7c-5.1,0.9-10.2,2-15,4.1c-0.7,0.3-1,0.7-1,1.4c-0.3,3.2,0.6,5.9,2.5,8.3c2.1,2.7,5,4.5,8,6
	c0.5,0.3,1,0.5,1.6,0.7c-0.1-0.4-0.2-0.7-0.4-1c-0.1-0.3-0.4-0.8-0.1-1.1c0.3-0.3,0.6-0.1,0.9,0c1.2,0.4,2.4,0.8,3.6,1.2
	c0.8,0.2,1.6,0.4,2.4,0.2c-0.2-0.4-0.6-0.6-0.8-1c-0.1-0.2-0.2-0.5-0.1-0.7c0.1-0.2,0.4-0.1,0.6-0.1c1,0.1,1.9,0.2,2.9,0.3
	c1.1,0.1,2.2,0.1,3.5-0.2c-0.7-0.4-1.3-0.6-1.6-1.2c-0.1-0.1-0.3-0.3-0.2-0.4c0.1-0.2,0.3-0.2,0.4-0.2c1-0.1,2-0.2,3-0.3
	c1.1-0.1,2.2-0.3,3.2-0.6c0.2,0,0.4-0.1,0.4-0.3c0-0.2-0.2-0.2-0.3-0.3c-0.4-0.2-0.8-0.3-1.2-0.6c-0.1-0.1-0.3-0.2-0.3-0.4
	c0-0.3,0.3-0.2,0.5-0.2c0.6-0.1,1.3-0.2,1.9-0.4c1.3-0.3,2.5-0.7,3.8-1.3c-0.6-0.3-1.1-0.5-1.6-0.8c-0.2-0.1-0.4-0.2-0.4-0.5
	c0-0.3,0.3-0.3,0.5-0.4c1-0.4,2-0.7,3-1.2c0.8-0.3,1.5-0.6,2.1-1.3c-0.1-0.2-0.2-0.2-0.3-0.2c-0.6-0.1-1.3-0.2-1.8-0.7
	c-0.3-0.3-0.3-0.6,0.1-0.8c0.6-0.2,1.1-0.4,1.7-0.6c1-0.3,2-0.7,2.9-1.4c0.1-0.1,0.4-0.2,0.4-0.4c0-0.3-0.3-0.2-0.4-0.3
	c-0.4-0.2-0.8-0.3-1.2-0.5c-0.7-0.3-0.7-0.4-0.2-1.1c0.9-1.1,2-2,3.2-2.8c0.2-0.1,0.5-0.2,0.5-0.5c0-0.3-0.4-0.3-0.6-0.4
	c-1.5-0.7-3-1.3-4.4-2.2c-0.1-0.1-0.3-0.1-0.3-0.3c0-0.2,0.2-0.2,0.4-0.3c0.4-0.2,0.7-0.3,1.1-0.5c0.4-0.2,0.5-0.4,0.1-0.6
	c-0.6-0.4-1.1-0.8-1.8-1c-1.2-0.4-2.5-0.7-3.8-0.8c-0.3,0-0.7,0-0.8-0.4c-0.1-0.5,0.2-0.8,0.6-1c0.4-0.2,0.8-0.4,1.3-0.6
	c-0.2-0.1-0.3-0.1-0.4-0.1c-1.6-0.4-3.3-0.7-5-0.8c-0.3,0-0.5,0-0.6-0.3c-0.1-0.3,0.1-0.6,0.3-0.8c0.2-0.2,0.5-0.3,0.8-0.4
	c0.3-0.2,0.6-0.2,0.9-0.5c-0.1-0.1-0.1-0.1-0.2-0.1c-0.2,0-0.3-0.1-0.5-0.1c-1.7-0.3-3.4-0.4-5.1-0.1c-0.6,0.1-0.7-0.2-0.7-0.7
	c0.1-0.5,0.4-0.7,0.7-1c0.2-0.2,0.6-0.2,0.8-0.6c-0.3,0-0.6,0-0.9,0c-1.5,0.1-3,0.4-4.4,0.9c-0.6,0.2-0.8,0.1-0.9-0.6
	c-0.1-0.8,0.3-1.3,0.8-1.9c-1.7,0.2-3.2,0.7-4.6,1.4c-0.7,0.3-0.9,0.2-0.9-0.5C1009.2,85.9,1009.6,85.4,1009.9,84.6z M977.9,170
	c1.2,0.6,3,1,5,0.9c5.7-0.3,9.7-3.6,12.3-8.9c2-3.9,2.5-8.2,1.8-12.4c-1.1-6.5-4.1-11.4-10-13.9c-2.8-1.2-5.7-1.2-8.5-0.1
	c-5.1,1.9-8.1,5.9-9.6,11.1c-1.5,5.1-1.2,10.1,0.9,14.8C971.3,165.3,973.8,168.2,977.9,170z M963.6,142.4c0.3-0.6,0.5-1.1,0.8-1.7
	c0.1-0.3,0.2-0.7,0.3-1c1.5-5.5,0.6-10.3-3.3-14c-2.8-2.6-6.2-3.7-10-3.4c-8.2,0.7-14.3,5-17.9,13c-1.3,2.9-1.7,5.9-1.2,8.9
	c1.1,5.9,4.8,9.2,10.2,10.2C950.7,156,960.1,150.5,963.6,142.4z M945.3,188c4,1.9,7,2.4,10.2,1.8c6-1,10.3-4.3,12.7-10.3
	c1.6-4.1,1.4-8.2-0.3-12c-3.7-8.4-13.2-11.9-21.6-8.1c-5.4,2.4-9.3,8.4-9.2,14.4C937.1,180.8,940.6,185.5,945.3,188z M990.7,192.2
	c0.9-1.9,1.6-4.3,1.8-6.7c0.1-1.3,0.2-2.6-0.5-3.8c-1.2-2-3-2.6-5.2-2.6c-2.6-0.1-5,0.7-7.5,1.5c-5.2,1.8-9.7,4.6-13.3,9
	c-1.8,2.1-3.3,4.4-4.2,7.1c-0.8,2.5-0.3,4.3,1.5,5.8c2,1.7,4.5,2.5,7.1,2.6c5,0.3,9.6-1.5,13.8-4.4
	C987.2,198.6,989.1,195.8,990.7,192.2z M921.1,183c0.4,0.2,0.8,0.4,1.2,0.5c2.7,1,4.9,0.1,6.5-2.6c1.5-2.5,2.1-5.2,2.5-8
	c0.8-6.1-0.9-11.5-3.8-16.5c-1.4-2.3-3.2-4.3-5.8-5.2c-1.8-0.6-3.4-0.3-4.9,1.1c-1.6,1.5-2.6,3.4-3.4,5.5c-1.9,5.5-2.2,11,0,16.3
	C915,178.1,917.4,181.3,921.1,183z M973.6,128.9c1.6,0.7,3.1,1.2,4.8,1.6c2.3,0.6,4.6,0.8,7,0.3c3.5-0.8,5.3-3.1,5-6.4
	c-0.1-0.6-0.2-1.2-0.3-1.8c-1.8-5.4-5.3-9.1-10.4-11.1c-4.2-1.6-8.5-1.4-12.8,0.5c-3.2,1.4-4.3,3.8-3.2,7.1c0.3,1,0.8,2,1.4,2.9
	C967.3,125.2,970.3,127.3,973.6,128.9z M937.7,207.8c2.6,1.3,6.1,1.5,9.7,0.9c2.3-0.4,4.5-1,6.6-2.3c0.6-0.4,1.2-0.8,1.6-1.5
	c0.9-1.4,0.3-2.5-0.4-3.6c-1.9-2.9-4.6-4.9-7.5-6.6c-3.6-2-7.4-3.6-11.6-4.1c-2.3-0.3-4.6-0.6-7,0.1c-1.7,0.5-2.5,1.6-2.3,3.5
	c0.2,1.3,0.6,2.5,1.1,3.7C930,202.1,932.8,205.6,937.7,207.8z M915.6,132.5c-0.4,0.9-0.7,1.7-1,2.6c-1.1,3.7-1.4,7.3-0.2,10.9
	c0.4,1.3,1.2,1.6,2.5,1.2c0.9-0.3,1.7-0.9,2.4-1.5c2.1-1.8,3.9-4,5.5-6.3c2.6-3.8,5-7.7,6.4-12.1c0.4-1.2,0.7-2.5,0.5-3.7
	c-0.2-1.3-1-1.9-2.2-1.7C923.1,122.7,918.5,126.4,915.6,132.5z M999.2,162.1c-1.1,2.3-1.9,4.7-2.6,7.2c-0.9,3.4-1.7,6.8-1.7,10.3
	c0,1,0.1,2.1,0.5,3c0.4,1.1,1.2,1.4,2.3,1c0.6-0.3,1.3-0.5,1.8-0.9c4.3-2.6,7.2-6.5,8.7-11.4c1.7-5.5,1-10.6-1.9-15.2
	c-0.6-1-1.6-1.1-2.6-0.5c-0.7,0.4-1.3,1-1.8,1.7C1000.8,158.8,1000,160.4,999.2,162.1z M1007,148.5c0.5-0.9,0.8-2,1.1-3.2
	c1.3-4.7,1.1-9.1-1-13.3c-2.5-4.9-6.6-7.6-11.5-9.3c-2.1-0.7-2.1,0-1.9,1.9c0.2,1.9,0.7,3.6,1.3,5.4c1.3,4.1,2.9,8,4.7,11.8
	c1.2,2.6,2.5,5.1,4.3,7.3c0.4,0.5,0.8,1,1.3,1.2c0.5,0.3,0.9,0.2,1.2-0.4C1006.5,149.5,1006.7,149.1,1007,148.5z M959.6,105.7
	c-1-0.4-1.9-0.8-2.9-1.1c-3.7-1-7.4-1-11,0.5c-5.3,2.2-8.8,6.3-11.1,11.7c-0.3,0.6-0.1,1,0.5,1.2c0.5,0.2,1.1,0.2,1.7,0.2
	c1.1,0,2.3-0.2,3.4-0.4c6.6-1.3,13-3.5,19.2-6.4c1.3-0.6,2.6-1.3,3.7-2.3c0.7-0.6,0.6-1,0-1.5C961.9,106.8,960.8,106.2,959.6,105.7z
	"/>
<path class="st0" d="M1126.5,642.9c-0.5-0.5-0.9-0.9-1.4-1.3c-1-0.9-1.5-2.1-1.4-3.6c0-0.4-0.1-0.6-0.4-0.9c-1.6-1.4-2.6-3-2.2-5.4
	c0.1-0.3-0.1-0.6-0.3-0.9c-0.5-0.9-1-1.8-1.3-2.9c-0.2-1-0.2-1.9,0.1-2.9c0.2-0.5,0.1-0.8-0.1-1.3c-0.7-1.5-0.8-3.1,0-4.7
	c0.2-0.4,0.2-0.8,0.1-1.3c-0.4-1.4-0.6-2.8,0.2-4.2c0.6-0.9,0.6-1.7,0.5-2.6c-0.2-1.7,0.5-3,1.8-3.9c0.4-0.3,0.5-0.5,0.6-1
	c0-3.4,2.5-5.5,6-3.9c0.4,0.2,0.7,0.2,1.2,0c1.5-0.8,3-0.6,4.5-0.2c0.3,0.1,0.6,0.2,0.8,0.3c0.6,0.4,1.2,0.4,2,0.1
	c1.1-0.4,2.1-0.1,3,0.4c0.4,0.2,0.7,0.4,1.1,0.3c1.9-0.6,3.5,0,4.8,1.3c0.4,0.4,0.9,0.6,1.5,0.4c1.1-0.3,2.1,0.1,3,0.9
	c0.3,0.3,0.7,0.6,1,1c0.5,0.6,1.1,0.9,1.8,1c1.2,0.1,2,0.8,2.7,1.7c0.5,0.7,1,1.2,1.9,1.3c1.6,0.4,2.6,1.5,3.1,3.1
	c0.3,1,0.8,1.7,1.8,1.9c0.4,0.1,0.7,0.4,0.9,0.8c1.6,2.6,2.3,5.5,2.6,8.6c0.2,1.9,0.2,3.8,0,5.8c0.8-0.9,1.6-1.9,2.5-2.7
	c2.6-2.5,5.4-4.5,8.8-5.5c0.8-0.2,1.6-0.3,2.3,0.1c0.5,0.3,1,0.2,1.5,0c1.2-0.6,2.4-1.1,3.7-0.8c0.5,0.1,0.9,0.2,1.3,0.5
	c0.6,0.5,1.3,0.5,2.1,0.4c1.4-0.3,2.6,0,3.7,0.9c0.3,0.3,0.6,0.4,1,0.3c0.5,0,1,0,1.6-0.1c1.5-0.1,2.6,0.5,3.4,1.8
	c0.2,0.3,0.4,0.4,0.8,0.5c1.1,0.1,2.3,0.2,3.3,0.9c0.2,0.2,0.5,0.3,0.6,0.5c0.6,1.3,1.8,1.7,3,2.2c0.7,0.3,1.2,0.9,1.5,1.6
	c0.2,0.5,0.5,0.7,0.9,0.9c0.9,0.3,1.9,0.7,2.6,1.4c0.5,0.4,1,0.9,1.3,1.5c0.6,1,1.2,1.7,2.2,2.2c2.5,1.4,2.8,4.1,0.8,6.3
	c-0.5,0.5-0.6,1-0.5,1.7c0.2,1.7-0.4,3-1.7,3.9c-0.7,0.5-1,1-1.2,1.9c-0.3,1.4-1.3,2.3-2.4,3c-0.7,0.4-1.1,0.8-1.4,1.7
	c-0.5,1.5-1.6,2.4-3,2.9c-0.6,0.2-0.9,0.5-1.2,1.1c-0.4,1-1.2,1.6-2.1,2.1c-0.5,0.3-1.1,0.6-1.7,0.7c-1,0.2-1.8,0.6-2.5,1.5
	c-1.1,1.4-2.7,1.6-4.2,1.6c-0.7,0-1.1,0.1-1.6,0.6c-0.8,0.9-1.9,1.3-3.1,1.3c-0.6,0-1.3-0.1-2-0.1c0.2,0.3,0.3,0.5,0.5,0.7
	c1.9,2.8,3.5,5.7,4.2,9.1c0.9,3.9,0.6,7.8-0.4,11.8c-0.4,1.5-0.9,3-1.5,4.5c-0.4,1-0.3,2.2,0.2,3.1c3,5.2,3.7,11,2.5,17.1
	c-1.5,7.4-5.6,12.7-11.9,16.4c-0.3,0.2-0.6,0.4-0.9,0.8c-1.5,2.3-3.2,4.4-4.9,6.3c-1,1.1-1.8,2.3-2.7,3.6
	c-3.6,5.5-8.5,8.9-14.5,10.8c-2,0.6-3.9,0.9-5.9,0.9c-0.5,0-0.9,0.2-1.4,0.3c-4.9,1.5-9.8,2.4-14.8,2.3c-0.5,0-1,0.2-1.4,0.4
	c-4.1,1.8-8.2,2.7-12.5,2.2c-7.4-0.9-13.1-4.6-17-11.2c-0.8-1.4-1.5-2.8-2-4.4c-0.1-0.4-0.4-0.7-0.7-1c-3.4-3.3-6.2-7.2-8.5-11.4
	c-0.6-1-1.3-1.9-2-2.8c-3.2-3.8-5.1-8.3-5.7-13.5c-0.4-3.2-0.1-6.4,0.7-9.6c0.3-1.3,0.3-2.7,0.4-4.1c0.2-2.3,0.4-4.6,0.9-6.8
	c0.1-0.4,0-0.8-0.1-1.2c-1.1-3.8-1.3-7.7-0.4-11.7c1.5-6.8,5.3-11.9,10.8-15.7c2-1.4,4.1-2.3,6.4-2.9c1-0.3,1.9-1,2.4-2.2
	c1.5-3.5,3.4-6.7,5.9-9.4c3-3.2,6.6-5.1,10.6-6.2C1124,643.5,1125.3,643.2,1126.5,642.9z M1123.2,621.6c-0.1,0.3,0.1,0.5,0.1,0.7
	c0.5,1.5,1.3,2.9,2.1,4.3c0.1,0.2,0.5,0.5,0.3,0.8c-0.2,0.3-0.6,0.1-0.9,0c-0.1,0-0.2-0.1-0.3-0.1c-0.3-0.1-0.8-0.5-1-0.3
	c-0.3,0.3,0.2,0.7,0.4,1.1c0.9,1.6,2,3,3.2,4.4c0.1,0.2,0.4,0.3,0.2,0.6c-0.1,0.2-0.4,0.2-0.6,0.2c-0.6,0.1-1.1-0.3-1.8-0.4
	c0.5,0.8,0.9,1.4,1.4,1.9c0.9,1,2,1.9,3,2.7c0.4,0.4,0.3,0.6-0.2,0.8c-0.4,0.2-0.9,0.1-1.4,0.2c0.8,1,1.8,1.6,2.8,2.2
	c0.9,0.5,1.7,0.9,2.6,1.4c0.2,0.1,0.5,0.3,0.5,0.6c0,0.3-0.3,0.4-0.6,0.5c-0.4,0.2-0.8,0.3-1.3,0.5c1.2,0.7,2.4,1,3.6,1.4
	c2.4,0.8,4.8,1.2,7.4,1.1c3.1-0.2,5.8-1.3,8.1-3.7c0.7-0.7,0.8-1.3,0.4-2.2c-1.1-2.9-2.4-5.7-4-8.4c-3.3-5.7-7.1-11-11.1-16.2
	c-0.1-0.2-0.4-0.3-0.3-0.7c0.3,0.3,0.6,0.6,0.9,0.8c4.6,4.4,8.9,9.2,12.6,14.5c1.9,2.8,3.7,5.8,5.2,8.9c0.1,0.3,0.3,0.5,0.7,0.5
	c1.3-0.2,2.5-0.5,3.6-1.2c2.4-1.5,3.5-3.8,4-6.5c0.7-3.5,0.3-6.9-0.6-10.2c-0.2-0.8-0.4-1.6-0.8-2.3c-0.4,0.4-0.7,0.8-1,1.2
	c-0.3,0.4-0.6,0.4-0.8-0.1c-0.3-0.9-0.5-1.7-0.8-2.6c-0.3-1.1-0.7-2.1-1.2-3.2c-0.4,0.4-0.4,0.8-0.5,1.1c-0.3,0.4-0.6,0.9-1.1,0.9
	c-0.4,0-0.4-0.6-0.5-1c-0.4-1.4-1.1-2.7-2-3.8c-0.1,0.7-0.3,1.3-0.9,1.7c-0.4,0.3-0.7,0.3-0.9-0.2c-0.4-0.9-0.8-1.8-1.4-2.7
	c-0.5-0.6-0.9-1.3-1.7-1.9c0.2,0.7,0.3,1.1,0.3,1.6c-0.1,0.4-0.3,0.8-0.6,0.9c-0.4,0.2-0.5-0.2-0.7-0.5c-0.2-0.3-0.4-0.6-0.6-0.9
	c-1-1.3-2.2-2.3-3.7-3.3c0.3,0.6,0.5,1,0.6,1.4c0.1,0.5,0.4,1-0.1,1.4c-0.5,0.3-0.7-0.2-1-0.5c-1.2-1.1-2.5-2.1-4-3
	c0.2,0.7,0.5,1.2,0.5,1.7c0,0.3-0.1,0.6-0.4,0.8c-0.3,0.2-0.5,0-0.7-0.2c-0.5-0.4-1.1-0.9-1.6-1.3c-1.1-0.8-2.3-1.5-3.6-1.7
	c-0.2,0-0.4-0.1-0.5,0c-0.1,0.1,0,0.3,0.1,0.5c0.1,0.3,0.3,0.7,0.4,1c0.1,0.2,0.2,0.4,0,0.5c-0.2,0.2-0.4,0-0.5,0
	c-1.6-0.4-3-1.1-4.6-1.7c-0.2-0.1-0.5-0.4-0.7-0.2c-0.2,0.2,0,0.5,0,0.7c0.3,1.5,0.4,2.9,0.2,4.4c-0.1,0.6-0.3,0.8-0.8,0.5
	c-0.5-0.2-1-0.4-1.4-0.7c-0.4-0.2-0.5-0.1-0.4,0.3c0.1,0.9,0.3,1.7,0.6,2.5c0.4,0.8,0.7,1.6,1,2.4c0.2,0.5,0,0.7-0.5,0.7
	c-0.3,0-0.6,0-0.8-0.2c-0.4-0.2-0.9-0.5-1.3-0.8c-0.1,0.4,0,0.7,0,1c0.3,1.6,1.1,3.1,1.7,4.6c0.2,0.6,0,0.8-0.5,0.6
	C1124.3,622,1123.7,621.8,1123.2,621.6z M1184.9,626.2c-0.3,0.1-0.5,0.2-0.7,0.3c-1.6,0.7-3.2,1.5-4.7,2.4c-0.6,0.3-0.8,0.2-0.7-0.5
	c0-0.3,0-0.7,0.1-1c0.2-0.6-0.1-0.6-0.5-0.4c-0.4,0.2-0.9,0.5-1.3,0.7c-3.2,1.9-6.1,4.2-8.3,7.5c-2.3,3.5-2.2,7.2,0,10.1
	c0.3,0.4,0.6,0.5,1.1,0.4c9.8-3.3,19.7-4.3,29.7-4c0.2,0,0.4-0.1,0.5,0.2c-0.2,0-0.3,0.1-0.5,0.1c-4.6,0.6-9.1,1.2-13.6,2.2
	c-5.1,1.1-10.1,2.4-14.9,4.7c-0.7,0.3-0.9,0.7-1,1.5c-0.2,3.2,0.8,5.9,2.8,8.2c2.2,2.7,5.1,4.3,8.2,5.7c0.5,0.2,1,0.4,1.6,0.7
	c-0.1-0.4-0.3-0.7-0.4-1c-0.2-0.3-0.4-0.7-0.1-1.1c0.2-0.3,0.6-0.1,0.9,0c1.2,0.3,2.5,0.7,3.7,1c0.8,0.2,1.6,0.3,2.4,0.1
	c-0.3-0.4-0.6-0.6-0.8-1c-0.1-0.2-0.3-0.4-0.1-0.7c0.1-0.2,0.4-0.1,0.6-0.1c1,0,1.9,0.1,2.9,0.2c1.1,0,2.2,0,3.5-0.4
	c-0.7-0.4-1.3-0.6-1.7-1.1c-0.1-0.1-0.3-0.2-0.2-0.4c0.1-0.2,0.3-0.2,0.4-0.2c1-0.1,2-0.2,3-0.4c1.1-0.1,2.1-0.4,3.2-0.7
	c0.2-0.1,0.4-0.1,0.4-0.3c0-0.2-0.2-0.2-0.3-0.3c-0.4-0.2-0.8-0.3-1.2-0.6c-0.1-0.1-0.4-0.2-0.3-0.4c0-0.3,0.3-0.2,0.5-0.3
	c0.6-0.2,1.3-0.3,1.9-0.5c1.2-0.4,2.5-0.8,3.8-1.5c-0.6-0.3-1.1-0.5-1.6-0.8c-0.2-0.1-0.4-0.2-0.4-0.5c0-0.3,0.3-0.3,0.5-0.4
	c1-0.4,2-0.8,3-1.3c0.7-0.4,1.5-0.7,2.1-1.4c-0.1-0.2-0.2-0.2-0.3-0.2c-0.6-0.1-1.3-0.2-1.8-0.7c-0.3-0.3-0.4-0.6,0.1-0.8
	c0.5-0.2,1.1-0.5,1.7-0.7c1-0.4,2-0.8,2.8-1.5c0.1-0.1,0.4-0.2,0.4-0.4c0-0.3-0.3-0.2-0.4-0.3c-0.4-0.2-0.8-0.3-1.2-0.5
	c-0.7-0.3-0.7-0.4-0.2-1.1c0.9-1.2,2-2.1,3.1-2.9c0.2-0.1,0.5-0.2,0.5-0.5c0-0.3-0.4-0.3-0.6-0.4c-1.5-0.7-3.1-1.2-4.5-2
	c-0.1-0.1-0.4-0.1-0.3-0.3c0-0.2,0.2-0.2,0.4-0.3c0.3-0.2,0.7-0.3,1.1-0.5c0.4-0.2,0.5-0.4,0.1-0.6c-0.6-0.3-1.2-0.8-1.9-0.9
	c-1.3-0.3-2.5-0.6-3.8-0.7c-0.3,0-0.7,0.1-0.8-0.4c-0.1-0.5,0.2-0.8,0.6-1c0.4-0.2,0.8-0.4,1.3-0.7c-0.2-0.1-0.3-0.1-0.4-0.1
	c-1.6-0.4-3.3-0.6-5-0.6c-0.3,0-0.5,0-0.6-0.3c-0.1-0.3,0.1-0.6,0.3-0.8c0.2-0.2,0.5-0.3,0.8-0.4c0.3-0.2,0.6-0.2,0.9-0.5
	c-0.1-0.1-0.1-0.1-0.2-0.1c-0.2,0-0.3-0.1-0.5-0.1c-1.7-0.3-3.4-0.3-5.1,0.1c-0.6,0.2-0.7-0.1-0.7-0.7c0-0.5,0.4-0.7,0.7-1
	c0.2-0.2,0.6-0.3,0.8-0.6c-0.3,0-0.6,0-0.9,0c-1.5,0.1-2.9,0.5-4.3,1.1c-0.6,0.3-0.8,0.1-0.9-0.5c-0.1-0.8,0.3-1.3,0.7-1.9
	c-1.7,0.2-3.1,0.8-4.6,1.6c-0.6,0.3-0.9,0.2-0.9-0.5C1184.2,627.4,1184.6,626.9,1184.9,626.2z M1156.1,712.7c1.2,0.6,3.1,0.9,5,0.7
	c5.7-0.5,9.6-4,12-9.3c1.8-4,2.2-8.2,1.3-12.5c-1.3-6.4-4.5-11.3-10.5-13.5c-2.8-1-5.7-1-8.5,0.2c-5,2.1-7.8,6.2-9.2,11.5
	c-1.3,5.2-0.8,10.2,1.4,14.8C1149.3,708.2,1151.9,711,1156.1,712.7z M1140.7,685.6c0.2-0.6,0.5-1.2,0.7-1.7c0.1-0.3,0.2-0.7,0.3-1
	c1.2-5.5,0.2-10.3-3.8-13.9c-2.9-2.5-6.4-3.5-10.2-3c-8.2,1-14.1,5.5-17.4,13.6c-1.2,2.9-1.5,6-0.8,9c1.4,5.8,5.1,9,10.6,9.8
	C1128.3,699.7,1137.5,693.9,1140.7,685.6z M1124.1,731.8c4.1,1.7,7.1,2.1,10.3,1.4c5.9-1.2,10.2-4.7,12.3-10.8
	c1.5-4.2,1.1-8.2-0.8-12c-4-8.3-13.6-11.4-21.9-7.3c-5.3,2.6-9,8.7-8.7,14.7C1115.7,725,1119.4,729.6,1124.1,731.8z M1169.7,734.4
	c0.8-1.9,1.5-4.3,1.6-6.8c0.1-1.3,0.1-2.6-0.6-3.8c-1.3-1.9-3.1-2.5-5.3-2.4c-2.6,0-5,0.9-7.4,1.8c-5.1,2-9.5,5-13,9.5
	c-1.7,2.2-3.2,4.5-3.9,7.3c-0.7,2.5-0.2,4.3,1.7,5.7c2.1,1.6,4.5,2.3,7.2,2.4c5,0.1,9.5-1.9,13.6-5
	C1166.4,741,1168.2,738,1169.7,734.4z M1099.8,727.8c0.4,0.2,0.8,0.4,1.2,0.5c2.7,0.9,4.9-0.1,6.4-2.8c1.4-2.5,1.9-5.3,2.2-8.1
	c0.5-6.1-1.3-11.5-4.4-16.3c-1.5-2.3-3.3-4.2-6-5c-1.8-0.5-3.5-0.2-4.9,1.3c-1.5,1.6-2.5,3.5-3.2,5.6c-1.7,5.6-1.8,11.1,0.6,16.3
	C1093.5,723.1,1095.9,726.2,1099.8,727.8z M1150.2,671.8c1.6,0.6,3.2,1.1,4.9,1.5c2.3,0.5,4.6,0.6,7,0c3.4-0.9,5.2-3.3,4.8-6.6
	c-0.1-0.6-0.2-1.2-0.4-1.8c-2-5.3-5.6-8.9-10.8-10.7c-4.3-1.5-8.6-1.1-12.8,0.9c-3.2,1.5-4.1,4-2.9,7.3c0.4,1,0.9,2,1.5,2.8
	C1143.8,668.3,1146.8,670.3,1150.2,671.8z M1117.3,752c2.6,1.2,6.1,1.2,9.7,0.5c2.3-0.5,4.5-1.2,6.5-2.5c0.6-0.4,1.2-0.9,1.6-1.5
	c0.8-1.4,0.2-2.5-0.5-3.6c-2-2.8-4.8-4.8-7.8-6.3c-3.7-1.9-7.5-3.3-11.7-3.7c-2.3-0.2-4.7-0.4-7,0.4c-1.7,0.5-2.4,1.7-2.1,3.5
	c0.2,1.3,0.7,2.5,1.3,3.6C1109.3,746.6,1112.3,749.9,1117.3,752z M1092.4,677.5c-0.4,0.9-0.7,1.7-0.9,2.6c-1,3.7-1.1,7.4,0.2,10.9
	c0.5,1.3,1.3,1.6,2.5,1.1c0.9-0.4,1.6-1,2.3-1.6c2.1-1.9,3.7-4.2,5.3-6.5c2.5-3.9,4.7-7.9,5.9-12.4c0.3-1.2,0.6-2.5,0.4-3.7
	c-0.2-1.3-1-1.9-2.3-1.7C1099.5,667.4,1095.1,671.3,1092.4,677.5z M1177.1,704c-1,2.3-1.8,4.8-2.4,7.3c-0.8,3.4-1.4,6.8-1.3,10.3
	c0,1,0.2,2.1,0.6,3c0.5,1,1.3,1.4,2.3,0.9c0.6-0.3,1.2-0.6,1.8-0.9c4.2-2.8,6.9-6.8,8.3-11.7c1.5-5.6,0.6-10.6-2.5-15.1
	c-0.6-0.9-1.6-1.1-2.6-0.4c-0.7,0.5-1.2,1.1-1.7,1.7C1178.5,700.6,1177.7,702.3,1177.1,704z M1184.3,690.1c0.4-0.9,0.7-2.1,1-3.2
	c1.1-4.7,0.7-9.2-1.5-13.3c-2.7-4.8-6.9-7.4-11.9-8.8c-2.1-0.6-2.1,0.1-1.9,2c0.2,1.9,0.9,3.6,1.5,5.3c1.4,4,3.2,7.9,5.1,11.6
	c1.3,2.5,2.7,5,4.5,7.2c0.4,0.5,0.8,0.9,1.4,1.2c0.5,0.3,1,0.1,1.2-0.5C1183.9,691.1,1184,690.7,1184.3,690.1z M1135.4,649.1
	c-1-0.4-1.9-0.8-3-1c-3.7-0.9-7.4-0.8-11,0.9c-5.3,2.3-8.6,6.6-10.6,12.1c-0.2,0.6,0,1,0.5,1.2c0.5,0.2,1.1,0.2,1.7,0.1
	c1.1-0.1,2.3-0.3,3.4-0.5c6.6-1.6,12.9-4,19-7.1c1.3-0.6,2.5-1.4,3.6-2.4c0.6-0.6,0.6-1-0.1-1.5
	C1137.7,650.1,1136.6,649.6,1135.4,649.1z"/>
<g class="st1">
	<g>
		<path class="st2" d="M674.6,330.8c-6.7,4.4-13.3,8.7-19.9,13.1c-0.9,0.6-1.4,0.6-2.2-0.1c-7.9-7-17.2-11.4-27.4-13.9
			c-5.7-1.4-11.5-2.6-16.9-5c-11.8-5.3-21.1-13.4-27.5-24.7c-5.5-9.8-7.8-20.5-7.4-31.8c0.3-9.4,2.3-18.4,6.4-26.8
			c3.9-8,9.3-14.9,16.4-20.4c13-10.2,27.9-14.5,44.2-12.6c16,1.8,29.9,8.3,40.8,20.3c7.3,8.1,11.9,17.6,13.8,28.3
			c1.4,8,1.2,15.9-0.4,23.8c-1.8,8.4-2.3,16.9-1.1,25.5c0.5,3.1,1.1,6.3,2.1,9.3c0.3,1,0.1,1.5-0.7,2
			C688,322,681.3,326.4,674.6,330.8z M670.2,324.1c5-3.3,10-6.6,15-9.8c0.6-0.4,0.9-0.8,0.7-1.6c-2.5-10.1-2.4-20.3-0.4-30.5
			c1-5.3,1.9-10.6,1.7-16.1c-0.4-12-4.4-22.6-12.4-31.5c-9.7-10.8-22.1-16.4-36.3-17.8c-14.3-1.4-27,2.5-38.1,11.6
			c-6.9,5.6-11.9,12.7-15.1,20.9c-2.9,7.6-4.1,15.5-3.8,23.6c0.5,11.2,4,21.2,11,29.9c7,8.8,16.1,14.3,26.9,17.2
			c3.1,0.8,6.3,1.4,9.5,2.3c8.8,2.5,16.9,6.4,24.4,11.5c0.8,0.5,1.4,0.6,2.2,0C660.4,330.5,665.3,327.3,670.2,324.1z"/>
		<path class="st2" d="M694.2,360.8c-5.8,3.8-11.7,7.7-17.5,11.5c-2.1,1.4-3.8,1.1-5.5-0.9c-0.2-0.3-0.4-0.6-0.6-0.9
			c-4.7-7.2-9.4-14.3-14.1-21.5c-0.8-1.2-0.8-1.2,0.4-2.1c1.1-0.7,2.2-1.5,3.4-2.2c1.7-1.1,1.7-1.1,2.7,0.5
			c3.6,5.5,7.2,11.1,10.9,16.6c0.2,0.4,0.5,0.7,0.7,1.1c1,1.5,1,1.5,2.4,0.5c3.6-2.3,7.1-4.7,10.7-7c5.3-3.5,10.5-6.9,15.8-10.4
			c0.9-0.6,1.1-1.1,0.4-2c-4-6.1-8-12.2-12-18.3c-0.9-1.4-0.9-1.4,0.4-2.2c1.4-0.9,2.8-1.8,4.2-2.8c0.7-0.5,1.1-0.3,1.5,0.3
			c4.9,7.4,9.7,14.9,14.6,22.3c0.5,0.8,0.7,1.6,0.8,2.5c0.1,1.3-0.3,2.2-1.4,2.9C706.2,352.9,700.2,356.9,694.2,360.8z"/>
		<path class="st2" d="M565.1,257c1.1,1.6,1,3.1,0.1,4.5c-0.9,1.4-2.3,1.8-3.9,1.5c-4.5-0.9-9-1.9-13.5-2.8c-2.7-0.6-5.3-1.1-8-1.7
			c-1.6-0.4-2.7-1.6-2.9-3.1c-0.2-1.7,0.6-3.1,2-3.9c0.8-0.4,1.6-0.4,2.5-0.3c7.1,1.5,14.3,3,21.4,4.5
			C563.8,255.9,564.7,256.3,565.1,257z"/>
		<path class="st2" d="M656.8,202.3c-1.7,1.1-3.1,0.9-4.4,0.1c-1.3-0.8-1.8-2-1.6-3.4c0-0.1,0-0.1,0-0.2c1.5-7.3,3-14.5,4.6-21.8
			c0.5-2.2,2.3-3.2,4.4-2.7c2,0.4,3.1,2.1,2.8,4.1c0,0.1,0,0.3-0.1,0.4c-1.5,7.1-2.9,14.1-4.4,21.2C658,201,657.6,201.9,656.8,202.3
			z"/>
		<path class="st2" d="M591.9,196.2c2,3,3.9,6,5.9,9c1.3,2,0.9,3.9-1,5.2c-1.9,1.2-3.8,0.8-5.1-1.1c-4-6.1-8-12.2-11.9-18.2
			c-1.3-2-0.9-3.9,1-5.1c1.9-1.3,3.8-0.9,5.1,1.1C587.8,190,589.9,193.1,591.9,196.2z"/>
		<path class="st2" d="M566.8,321.3c-3,2-6,4-9.1,5.9c-2,1.3-3.9,0.9-5.2-1c-1.2-1.9-0.8-3.8,1.2-5.1c6.1-4,12.2-8,18.2-11.9
			c2-1.3,3.9-0.9,5.1,1c1.3,1.9,0.9,3.8-1.1,5.1C573,317.3,569.9,319.3,566.8,321.3z"/>
		<path class="st2" d="M709,228.2c-3.1,2-6.1,4-9.2,6c-2,1.3-3.9,0.9-5.1-1c-1.3-1.9-0.9-3.8,1.1-5.1c6.1-4,12.2-8,18.3-12
			c1.9-1.3,3.8-0.8,5.1,1.1c1.2,1.9,0.8,3.8-1.1,5C715.1,224.2,712,226.2,709,228.2z"/>
		<path class="st2" d="M700.3,369.6c-3,2-6,4-9.1,5.9c-2,1.3-3.9,0.9-5.2-1c-1.2-1.9-0.8-3.8,1.2-5.1c6.1-4,12.2-8,18.2-12
			c2-1.3,3.9-0.9,5.1,1c1.3,1.9,0.9,3.8-1.1,5.1C706.4,365.6,703.4,367.6,700.3,369.6z"/>
		<path class="st2" d="M641.8,279.7c-5.1,3.3-11.8,1.9-15.1-3.2c-3.4-5.2-2-11.8,3.3-15.2c5.1-3.3,11.7-1.9,15.1,3.3
			C648.3,269.7,646.9,276.3,641.8,279.7z M638.6,274.8c2.4-1.6,3-4.7,1.5-7.1c-1.6-2.4-4.7-3-7.1-1.4c-2.3,1.6-3,4.6-1.4,7
			C633.1,275.7,636.2,276.3,638.6,274.8z"/>
	</g>
</g>
<g class="st1">
	<path class="st2" d="M1372.3,350.7c27.9-7.6,55.8-15.3,83.7-22.9c0.4-0.1,0.7-0.2,1-0.3c1-0.4,1.4-0.1,1.7,0.9
		c1.3,5,2.7,9.9,4.1,14.9c0.6,2.3,1.3,4.7,1.9,7c0.1,0.5,0.4,1.1-0.4,1.3c-0.4,0.1-0.4,0.4-0.3,0.8c0.1,0.4,0.2,0.8,0.3,1.2
		c10.7,39.1,21.4,78.3,32.1,117.4c0.7,2.4,0,4.3-1.8,5.4c-0.6,0.4-1.3,0.5-1.9,0.7c-47.5,13-95.1,26-142.6,39
		c-5.4,1.5-10.9,3-16.3,4.5c-3,0.8-5.1-0.4-5.9-3.4c-10.7-39.1-21.4-78.1-32.1-117.2c-0.1-0.4-0.2-0.7-0.3-1.1
		c-0.1-0.8-0.6-1.1-1.3-0.7c-1.1,0.5-1.4-0.1-1.7-1c-1.9-7.2-3.9-14.3-5.8-21.4c-0.4-1.5-0.4-1.5,1.1-1.9
		C1315.9,366.2,1344.1,358.4,1372.3,350.7z M1411.8,493.5c25.8-7.1,51.5-14.1,77.3-21.2c1.7-0.5,1.7-0.5,1.3-2.1
		c-10.4-38-20.8-76-31.2-113.9c-0.8-2.9-0.8-2.9-3.7-2.1c-1.4,0.4-1.4,0.4-1,1.8c3.3,12,6.6,24,9.9,36c0.4,1.4,0.4,1.4-1.1,1.8
		c-23,6.3-45.9,12.6-68.9,18.9c-1.4,0.4-1.4,0.4-1.8-1.1c-2.7-10-5.5-20-8.2-29.9c-0.6-2.1-1.2-4.3-1.7-6.4c-0.2-0.9-0.6-1-1.4-0.8
		c-1.2,0.4-2.4,0.7-3.6,1c-1.5,0.4-1.5,0.4-1.1,1.9c3.3,11.9,6.5,23.9,9.8,35.8c0.4,1.6,0.4,1.6-1.1,2
		c-22.9,6.3-45.8,12.5-68.7,18.8c-1.6,0.4-1.6,0.4-2-1.1c-3.2-11.7-6.4-23.4-9.6-35.1c-0.6-2.3-0.6-2.3-2.9-1.6
		c-1.5,0.4-1.5,0.4-1.1,2c10.5,38.5,21.1,76.9,31.6,115.4c0.4,1.6,0.4,1.6,2,1.1C1360.3,507.5,1386.1,500.5,1411.8,493.5z
		 M1377.6,370.7c26.8-7.3,53.6-14.7,80.5-22c1.4-0.4,1.4-0.4,1-1.8c-1.2-4.3-2.4-8.7-3.5-13c-0.3-1-0.6-1.1-1.6-0.9
		c-53.7,14.7-107.3,29.4-161,44.1c-0.9,0.3-1.2,0.6-0.9,1.6c1.2,4.3,2.4,8.5,3.5,12.8c0.4,1.6,0.4,1.6,2,1.1
		C1324.3,385.3,1351,378,1377.6,370.7z M1349.6,420.2c10.1-2.8,20.2-5.6,30.4-8.3c1-0.3,1.2-0.6,1-1.6c-2.9-10.6-5.9-21.3-8.7-31.9
		c-0.3-1.1-0.7-1.3-1.7-1c-20.1,5.5-40.3,11.1-60.4,16.5c-1,0.3-1.3,0.6-1,1.7c2.9,10.6,5.8,21.2,8.7,31.8c0.4,1.4,0.4,1.4,1.8,1
		C1329.6,425.6,1339.6,422.9,1349.6,420.2z M1427.6,398.8c10-2.7,20.1-5.5,30.1-8.3c1.4-0.4,1.4-0.4,1.1-1.8
		c-2.8-10.3-5.6-20.5-8.4-30.8c-0.7-2.7-0.1-2.4-3.1-1.7c-0.8,0.2-1,0.5-0.7,1.3c0.6,1.8,1.1,3.7,1.3,5.6
		c1.5,16.6-13,29.7-29.3,26.5c-0.7-0.1-1.2,0-1.6,0.6c-1.5,1.9-3.4,3.4-5.8,4.1c-4.6,1.4-9.3,2.6-13.9,3.9c-0.8,0.2-1.1-0.1-1.2-0.8
		c-0.3-1.2-0.6-2.4-1-3.6c-0.3-1,0-1.4,0.9-1.6c4-1.1,8-2.2,12-3.3c0.7-0.2,1.3-0.4,1.9-0.7c4.2-2.1,5.9-7.4,3.6-11.6
		c-2.3-4.3-7.4-5.8-11.6-3.5c-0.8,0.4-1.6,0.9-2.3,1.4c-0.6,0.4-1.1,0.5-1.4-0.4c-0.4-1-0.9-2-1.4-3c-0.4-0.8-0.9-1.1-1.8-0.8
		c-2.3,0.7-4.6,1.3-6.9,1.9c-1.4,0.4-1.4,0.4-1,1.8c2.9,10.6,5.8,21.1,8.7,31.7c0.4,1.4,0.4,1.4,1.7,1
		C1407.5,404.3,1417.6,401.5,1427.6,398.8z M1409.8,366.6c0.3,0.1,0.3,0.2,0.4,0.2c7.4,2.7,11.1,8.9,10,16.6
		c-0.1,0.7,0.1,0.9,0.8,0.9c3.8,0.5,7.5-0.1,11-1.8c8.5-4.2,12.6-14.6,9.2-23.4c-0.4-0.9-0.8-0.9-1.6-0.7
		c-7.9,2.2-15.7,4.3-23.6,6.5C1413.9,365.5,1411.9,366,1409.8,366.6z"/>
	<path class="st2" d="M1371.3,347.8c-28,7.7-55.9,15.3-83.9,23c-0.4,0.1-0.8,0.2-1.2,0.3c-0.7,0.2-1,0-1.2-0.7
		c-2-7.5-4.1-15-6.2-22.5c-0.2-0.7,0-1,0.7-1.2c0.3-0.1,0.6-0.2,0.9-0.3c56.1-15.4,112.3-30.7,168.4-46.1c2-0.6,1.8-0.7,2.4,1.3
		c1.9,7,3.8,14,5.8,21c0.4,1.4,0.4,1.4-1.1,1.8C1427.8,332.3,1399.6,340,1371.3,347.8z M1366.1,327.7c-26.8,7.3-53.6,14.7-80.5,22
		c-1.4,0.4-1.4,0.4-1,1.8c1.2,4.3,2.4,8.7,3.5,13c0.3,1,0.7,1.1,1.6,0.9c53.7-14.7,107.3-29.4,161-44.1c0.9-0.3,1.2-0.6,0.9-1.6
		c-1.2-4.3-2.4-8.5-3.5-12.8c-0.4-1.6-0.4-1.6-2-1.1C1419.4,313.1,1392.8,320.4,1366.1,327.7z"/>
	<path class="st2" d="M1371.8,500.7c-11.5,3.1-23,6.3-34.4,9.4c-1.4,0.4-1.4,0.4-1.8-1c-6.1-22.3-12.2-44.7-18.3-67
		c-0.4-1.4-0.4-1.4,1-1.8c23-6.3,45.9-12.6,68.9-18.9c1.4-0.4,1.4-0.4,1.8,1c6.1,22.3,12.2,44.7,18.3,67c0.4,1.4,0.4,1.5-1,1.8
		C1394.8,494.4,1383.3,497.6,1371.8,500.7z M1353.9,435.2c-10.1,2.8-20.2,5.5-30.2,8.3c-1.4,0.4-1.4,0.4-1,1.8
		c5.3,19.5,10.7,38.9,16,58.4c0.4,1.4,0.4,1.4,1.8,1c20.1-5.5,40.2-11,60.3-16.5c1.4-0.4,1.4-0.4,1-1.8c-5.3-19.4-10.6-38.9-16-58.3
		c-0.4-1.4-0.4-1.4-1.8-1.1C1374,429.7,1363.9,432.4,1353.9,435.2z"/>
	<path class="st2" d="M1449.7,479.4c-11.5,3.1-23,6.3-34.4,9.4c-1.4,0.4-1.4,0.4-1.8-1c-6.1-22.3-12.2-44.7-18.3-67
		c-0.4-1.4-0.4-1.4,1-1.8c23-6.3,45.9-12.6,68.9-18.9c1.4-0.4,1.4-0.4,1.8,1c6.1,22.3,12.2,44.7,18.3,67c0.4,1.4,0.4,1.4-1,1.8
		C1472.7,473.1,1461.2,476.2,1449.7,479.4z M1448.4,475.1c10.1-2.8,20.2-5.6,30.4-8.3c1-0.3,1.2-0.6,1-1.6
		c-5.4-19.5-10.7-39.1-16-58.6c-0.3-1.1-0.7-1.3-1.7-1c-20.1,5.5-40.3,11.1-60.4,16.5c-1,0.3-1.3,0.6-1,1.7
		c5.4,19.5,10.7,39,16,58.5c0.4,1.4,0.4,1.4,1.8,1C1428.4,480.6,1438.4,477.8,1448.4,475.1z"/>
	<path class="st2" d="M1375.9,400.5c0.2,0.7,0.4,1.3,0.5,2c0.3,1.1,0.2,1.3-1,1.2c-4.1-0.3-7.4-2.2-9.5-5.8
		c-2.9-4.9-1.9-11.1,2.4-14.7c0.4-0.3,0.8-0.6,1.2-0.9c0.9-0.5,1.3-0.4,1.5,0.6c0.3,1.2,0.6,2.3,1,3.5c0.2,0.7,0.1,1.3-0.4,1.9
		c-2.6,3.4-1.4,7.6,2.6,9.1c0.6,0.2,1,0.6,1.1,1.2C1375.5,399.2,1375.8,399.8,1375.9,400.5z"/>
</g>
<g class="st1">
	<g>
		<path class="st2" d="M1181.7-29.8c1-0.4,2-0.8,2.9-1.2c0.7-0.3,1.4-0.2,2,0.2c3.3,1.9,6.3,4.2,8.9,6.9c0.9,0.9,1.7,1.9,2.1,3.1
			c0.9,2.1,0.3,3.7-1.6,4.8c-1.7,1-3.5,1.3-5.4,1.2c-0.9,0-1.8-0.1-2.8-0.2c-0.4,0-0.7,0-0.5,0.5c2,5.4,0.9,10.5-1.1,15.6
			c-1.7,4.4-3.8,8.5-6.3,12.4c-2.3,3.6-4.7,7.2-7.2,10.7c-2,2.9-4,5.8-5.9,8.7c-1.7,2.7-3.4,5.5-4.9,8.3c-1.2,2.3-4.6,3.5-7.1,1.9
			c-3.8-2.4-7.7-4.5-11.5-6.8c-1.8-1.1-3.7-2.1-5.5-3.1c-2.5-1.4-3.5-4.2-2.2-6.8c0.8-1.7,0.4-1.7-0.7-2.5c-0.6-0.4-0.6-0.8-0.3-1.3
			c2.8-4.8,5.6-9.6,8.4-14.4c0.5-0.9,0.6-0.9,1.5-0.3c2.5,1.6,5.2,3.1,7.8,4.6c1,0.6,2.1,1.2,3.2,1.7c0.8,0.4,1.7,0.6,2.6,0.4
			c1.2-0.3,1.7-1.4,1.2-2.5c-0.4-1-1.1-1.6-2-2.1c-3.4-2-6.8-4-10.3-6c-1.1-0.7-1.1-0.7-0.5-1.8c0.7-1.3,1.5-2.6,2.2-3.8
			c0.2-0.3,0.3-0.6,0.7-0.2c1.7,1.7,3.9,2.8,5.9,4c2.2,1.3,4.4,2.6,6.7,3.7c3.4,1.7,6.4,1,9.3-1.2c0.9-0.7,1.7-1.6,2.3-2.6
			c1-1.7,0.7-3.1-0.9-4.3c-1.1-0.8-2.3-1.3-3.5-1.8c-3.5-1.5-6.9-2.9-10.4-4.3c-1.6-0.6-3.3-0.9-5-0.6c-0.2,0-0.5,0.2-0.7,0
			c-0.1-0.2,0.1-0.4,0.2-0.6c3-5.1,5.9-10.2,8.9-15.3c0.6-1,0.8-2.1,0.8-3.2c-0.1-3.6-0.3-7.2-0.4-10.8c0-0.2-0.1-0.4,0.1-0.5
			c0.2-0.1,0.3,0.1,0.4,0.2c3.1,2.1,6.3,4.1,9.2,6.3c0.1,0.1,0.3,0.2,0.5,0.3c0.4,0.3,0.6,0.1,0.7-0.3c0.9-6.6,1.5-13.1,1.3-19.8
			c-0.1-2.3-1.3-3.9-3.1-5.3c-3.4-2.7-6.6-5.4-10.1-8c-2.6-1.9-5.2-3.8-7.9-5.6c-3.8-2.5-7.7-5-11.7-7.3c-4.5-2.5-9.1-4.9-13.7-7.1
			c-5.9-2.8-12-5.2-18.1-7.5c-1.9-0.7-3.8-0.6-5.6,0.3c-0.5,0.3-1,0.6-1.5,0.8c-5.3,2.4-9.8,5.8-14.4,9.3c-1.3,1-1.2,1.2,0.3,1.8
			c2.9,1.2,5.7,2.5,8.4,4c0.2,0.1,0.5,0.1,0.5,0.4c0,0.3-0.4,0.3-0.6,0.4c-2.8,1.5-5.6,2.9-8.3,4.4c-1.5,0.8-2.7,2-3.6,3.5
			c-1.9,3.4-3.9,6.8-5.9,10.2c-1,1.7-1.1,1.7-2.8,0.7c-1.2-0.7-1.3-0.9-0.6-2.2c1.8-3.1,3.5-6.2,5.3-9.2c1.3-2.1,1.8-4.2,1.6-6.6
			c-0.2-2.8-0.2-5.6-0.3-8.5c-0.1-1.2-0.1-2.4-0.9-3.4c-0.3-0.4,0-0.7,0.3-0.9c1.9-1.4,3.7-2.9,5.6-4.3c3.9-2.9,8-5.4,12.3-7.7
			c4.4-2.4,8.8-2.6,13.5-0.8c4.1,1.6,8.3,3.1,12.4,4.9c2.5,1.1,4.9,2.3,7.4,3.5c3.5,1.6,7,3.4,10.4,5.2c1.7,0.9,3.4,1.8,5,3
			c0.2,0.1,0.4,0.3,0.6,0.4c5.5,3.2,10.8,6.6,15.9,10.5c4.3,3.2,8.5,6.7,12.6,10.1c3.7,3,5.2,6.9,5.4,11.6c0.2,5.7-0.2,11.3-0.9,17
			C1182.2-33.3,1181.9-31.6,1181.7-29.8z"/>
		<path class="st2" d="M1043.6-39.8c7.8-13.5,15.7-27,23.5-40.6c0.4-0.7,0.9-1.1,1.6-1.5c3.2-1.7,6.4-3.4,9.6-5
			c0.2-0.1,0.4-0.2,0.6-0.3c1.5-0.6,2.5-0.1,2.6,1.6c0.1,1.1,0.1,2.2,0.2,3.3c0.1,2.9,0.2,5.8,0.3,8.7c0,1-0.2,1.8-0.7,2.7
			c-2.5,4.3-5,8.6-7.5,12.8c-0.4,0.6-0.3,0.9,0.4,1.3c1.2,0.6,2.4,1.3,3.6,2.1c0.7,0.4,1,0.4,1.4-0.3c2.6-4.6,5.3-9.1,7.9-13.7
			c0.4-0.7,0.9-1.2,1.6-1.5c3.2-1.6,6.3-3.3,9.5-5c0.3-0.2,0.6-0.3,0.9-0.4c1.2-0.4,2.1,0.1,2.3,1.4c0.1,1,0.1,2,0.2,3.1
			c0.1,3.1,0.2,6.3,0.4,9.4c0,0.9-0.2,1.7-0.6,2.5c-2.5,4.3-5,8.6-7.5,12.9c-0.4,0.6-0.3,0.9,0.3,1.3c1.2,0.6,2.4,1.3,3.6,2.1
			c0.6,0.4,0.9,0.2,1.2-0.3c2.7-4.6,5.4-9.3,8-13.9c0.3-0.6,0.8-1,1.4-1.3c3.2-1.7,6.5-3.4,9.7-5.1c0.4-0.2,0.8-0.4,1.2-0.5
			c0.9-0.2,1.7,0.2,2,1.1c0.1,0.4,0.2,0.9,0.2,1.3c0.1,3.8,0.3,7.6,0.4,11.4c0,1-0.2,1.8-0.6,2.6c-2.5,4.2-5,8.5-7.4,12.8
			c-0.5,0.9-0.5,0.9,0.4,1.4c1.2,0.7,2.4,1.3,3.5,2.1c0.6,0.4,0.9,0.3,1.2-0.3c2.7-4.6,5.4-9.3,8-13.9c0.3-0.6,0.8-1,1.4-1.3
			c3.2-1.7,6.5-3.4,9.7-5.1c0.3-0.1,0.6-0.3,0.9-0.4c1.2-0.4,2.1,0.1,2.3,1.3c0.1,0.4,0.1,0.7,0.1,1.1c0.1,3.7,0.3,7.5,0.4,11.2
			c0,1-0.2,1.9-0.7,2.8c-2.5,4.2-4.9,8.5-7.4,12.8c-0.4,0.7-0.3,1,0.4,1.3c1.1,0.6,2.2,1.2,3.3,1.9c0.7,0.5,1,0.3,1.4-0.4
			c2.6-4.5,5.2-8.9,7.7-13.4c0.3-0.6,0.8-1,1.4-1.3c3.4-1.8,6.7-3.5,10.1-5.3c0.3-0.1,0.5-0.3,0.8-0.4c1.4-0.5,2.4,0,2.5,1.5
			c0.2,1.8,0.2,3.6,0.2,5.4c0.1,2.3,0.2,4.7,0.3,7c0,0.7-0.1,1.2-0.4,1.8c-15.6,26.9-31.2,53.9-46.8,80.8c-0.6,1.1-1.4,1.3-2.5,0.7
			c-3.9-2.3-7.9-4.5-11.8-6.8c-1.2-0.7-1.3-1.3-0.6-2.5c2.7-4.7,5.5-9.5,8.3-14.2c0.4-0.7,0.4-1-0.4-1.4c-1.1-0.6-2.2-1.2-3.3-1.9
			c-0.7-0.4-1-0.3-1.3,0.4c-2.7,4.6-5.3,9.3-8,13.9c-0.9,1.5-1.6,1.7-3.1,0.8c-3.7-2.2-7.5-4.3-11.2-6.5c-0.2-0.1-0.4-0.2-0.6-0.4
			c-0.6-0.4-0.7-0.9-0.3-1.6c2.9-4.9,5.7-9.8,8.5-14.7c0.4-0.7,0.4-1-0.4-1.4c-1.2-0.6-2.4-1.4-3.6-2.1c-0.6-0.4-0.9-0.2-1.2,0.3
			c-2.7,4.7-5.4,9.3-8.1,14c-0.9,1.5-1.6,1.7-3.1,0.8c-3.7-2.2-7.5-4.3-11.2-6.5c-0.2-0.1-0.4-0.2-0.6-0.4c-0.6-0.4-0.7-0.9-0.3-1.6
			c2.9-4.9,5.7-9.8,8.5-14.7c0.4-0.7,0.4-1-0.4-1.4c-1.2-0.6-2.4-1.3-3.5-2c-0.6-0.4-0.9-0.2-1.2,0.3c-2.7,4.7-5.4,9.3-8.1,14
			c-0.9,1.5-1.6,1.7-3.1,0.8c-3.7-2.2-7.5-4.3-11.2-6.5c-0.2-0.1-0.3-0.2-0.5-0.3c-0.8-0.6-0.9-0.9-0.4-1.8
			c2.8-4.9,5.6-9.8,8.5-14.6c0.4-0.7,0.4-1-0.4-1.4c-1.2-0.6-2.4-1.4-3.6-2.1c-0.6-0.4-0.9-0.3-1.2,0.3c-2.7,4.7-5.4,9.3-8.1,14
			c-0.9,1.5-1.6,1.7-3.1,0.8c-3.7-2.2-7.5-4.3-11.2-6.5c-0.1-0.1-0.3-0.2-0.4-0.2c-0.9-0.6-1-1-0.4-1.9
			c7.3-12.5,14.5-25.1,21.8-37.6C1042.3-37.6,1043-38.7,1043.6-39.8z M1135.5,13.3c7.4-12.8,14.8-25.6,22.2-38.4
			c0.4-0.8,0.7-1.6,0.7-2.5c-0.1-2.9-0.2-5.7-0.3-8.6c0-0.8-0.2-0.8-0.9-0.5c-2.5,1.3-5,2.6-7.5,4c-0.8,0.4-1.5,1-2,1.9
			c-14.8,25.6-29.6,51.2-44.5,76.7c-0.6,1-0.5,1.2,0.5,1.8c2.5,1.5,5.1,2.9,7.6,4.4c1.1,0.6,1.2,0.6,1.8-0.5
			C1120.7,38.8,1128.1,26.1,1135.5,13.3z M1045.9-38.5c-7.4,12.8-14.8,25.5-22.2,38.3c-0.6,1.1-0.6,1.2,0.4,1.8
			c2.6,1.5,5.1,3,7.7,4.5c0.9,0.5,1.3,0.4,1.8-0.5c14.8-25.5,29.6-51,44.3-76.5c0.5-0.8,0.8-1.8,0.8-2.8c-0.1-2.8-0.2-5.7-0.3-8.5
			c0-0.8-0.2-0.9-0.9-0.5c-2.2,1.1-4.3,2.3-6.5,3.4c-1.4,0.7-2.4,1.7-3.1,3C1060.6-63.8,1053.3-51.1,1045.9-38.5z M1075.8-21.2
			c7.3-12.7,14.7-25.3,22-38c0.5-0.9,0.9-2,0.9-3.1c-0.1-2.8-0.2-5.6-0.3-8.5c0-0.9-0.2-0.9-0.9-0.5c-2.2,1.1-4.3,2.3-6.5,3.4
			c-1.4,0.7-2.4,1.7-3.1,3c-8.1,14-16.2,28-24.3,42c-6.6,11.4-13.2,22.8-19.8,34.2c-0.6,1.1-0.6,1.2,0.5,1.8
			c2.5,1.4,4.9,2.9,7.4,4.3c1.3,0.7,1.4,0.7,2.2-0.6C1061.1,4.2,1068.4-8.5,1075.8-21.2z M1085.7-15.4
			c-7.4,12.8-14.8,25.5-22.2,38.3c-0.6,1.1-0.6,1.2,0.5,1.8c2.5,1.5,5,2.9,7.5,4.4c1.1,0.6,1.4,0.5,2-0.5c0.9-1.5,1.8-3.1,2.7-4.6
			c13.8-23.9,27.7-47.7,41.5-71.6c0.6-1,0.9-2.1,0.9-3.2c-0.1-2.7-0.2-5.5-0.3-8.2c0-1-0.2-1-1-0.6c-2.1,1.1-4.3,2.3-6.4,3.4
			c-1.4,0.7-2.4,1.7-3.1,3C1100.4-40.7,1093.1-28.1,1085.7-15.4z M1105.8-3.9c-7.4,12.8-14.8,25.6-22.2,38.4
			c-0.6,1.1-0.6,1.2,0.5,1.8c2.5,1.5,5,2.9,7.5,4.4c1.1,0.6,1.4,0.5,2-0.5c1-1.7,1.9-3.3,2.9-5c13.8-23.7,27.5-47.5,41.2-71.2
			c0.6-1,0.9-2.1,0.9-3.2c-0.1-2.7-0.2-5.5-0.3-8.2c0-1-0.2-1-1-0.6c-2.1,1.1-4.3,2.3-6.4,3.4c-1.4,0.7-2.4,1.7-3.1,3
			C1120.4-29.1,1113.1-16.5,1105.8-3.9z M1058.5-31.6c-2.7,4.7-5.4,9.4-8.1,14c-0.3,0.6-0.3,0.9,0.3,1.2c1.3,0.7,2.6,1.4,3.8,2.2
			c0.5,0.3,0.8,0.2,1.1-0.3c5.4-9.4,10.8-18.7,16.3-28.1c0.3-0.5,0.3-0.8-0.3-1.1c-1.3-0.7-2.5-1.4-3.8-2.2c-0.7-0.4-1-0.3-1.3,0.4
			C1063.9-40.8,1061.2-36.2,1058.5-31.6z M1103.6-5.4c2.7-4.7,5.4-9.3,8.1-13.9c0.3-0.6,0.3-0.9-0.3-1.2c-1.3-0.7-2.6-1.4-3.8-2.2
			c-0.5-0.3-0.8-0.2-1.1,0.3c-5.4,9.4-10.8,18.7-16.3,28.1c-0.3,0.5-0.3,0.8,0.3,1.1c1.3,0.7,2.5,1.4,3.8,2.2c0.7,0.4,1,0.3,1.3-0.4
			C1098.2,3.9,1100.9-0.8,1103.6-5.4z M1083.5-16.9c2.7-4.7,5.4-9.4,8.1-14c0.3-0.6,0.3-0.9-0.3-1.2c-1.3-0.7-2.5-1.4-3.7-2.1
			c-0.5-0.3-0.8-0.2-1.1,0.3c-5.4,9.4-10.8,18.7-16.3,28.1c-0.3,0.5-0.3,0.8,0.3,1.1c1.2,0.7,2.4,1.4,3.6,2.1c0.7,0.4,1,0.3,1.3-0.4
			C1078.2-7.7,1080.9-12.3,1083.5-16.9z M1123.2,6.1c2.7-4.7,5.4-9.4,8.1-14c0.3-0.6,0.3-0.9-0.3-1.2c-1.1-0.6-2.3-1.2-3.3-1.9
			c-0.7-0.4-1-0.3-1.4,0.4c-2.8,4.9-5.6,9.7-8.4,14.6c-2.6,4.4-5.1,8.9-7.7,13.3c-0.3,0.6-0.3,0.9,0.3,1.2c1.2,0.6,2.3,1.3,3.4,2
			c0.7,0.4,1,0.3,1.3-0.4C1117.9,15.3,1120.5,10.7,1123.2,6.1z M1115.3-25.6c0.4-0.7,0.8-1.5,1.3-2.2c0.3-0.4,0.2-0.7-0.2-0.9
			c-1.4-0.8-2.7-1.6-4.1-2.4c-0.4-0.2-0.7-0.2-0.9,0.2c-0.8,1.4-1.7,2.9-2.5,4.3c-0.2,0.4-0.2,0.6,0.2,0.8c1.4,0.8,2.8,1.6,4.2,2.4
			c0.4,0.3,0.7,0.1,0.9-0.3C1114.4-24.2,1114.9-24.9,1115.3-25.6z M1052-8.1c0.4-0.7,0.8-1.5,1.3-2.2c0.2-0.4,0.2-0.7-0.2-0.9
			c-1.4-0.8-2.8-1.6-4.2-2.4c-0.4-0.2-0.6-0.1-0.8,0.2c-0.8,1.4-1.7,2.9-2.5,4.3c-0.2,0.4-0.2,0.6,0.2,0.8c1.4,0.8,2.8,1.6,4.2,2.4
			c0.4,0.2,0.7,0.2,0.9-0.3C1051.2-6.8,1051.6-7.5,1052-8.1z M1091.8,14.9c0.4-0.7,0.8-1.4,1.2-2.1c0.2-0.4,0.3-0.7-0.2-0.9
			c-1.4-0.8-2.8-1.6-4.2-2.4c-0.4-0.3-0.7-0.1-0.9,0.3c-0.8,1.4-1.6,2.8-2.5,4.2c-0.2,0.4-0.2,0.7,0.2,0.9c1.4,0.8,2.7,1.6,4.1,2.4
			c0.5,0.3,0.7,0.1,0.9-0.3C1091,16.2,1091.4,15.6,1091.8,14.9z M1075.4-48.6c0.4-0.7,0.8-1.5,1.3-2.2c0.2-0.4,0.2-0.7-0.2-0.9
			c-1.4-0.8-2.7-1.6-4.1-2.4c-0.4-0.2-0.7-0.2-0.9,0.2c-0.8,1.4-1.7,2.9-2.5,4.3c-0.2,0.4-0.2,0.6,0.2,0.8c1.4,0.8,2.8,1.6,4.2,2.4
			c0.4,0.3,0.7,0.1,0.9-0.3C1074.6-47.3,1075-48,1075.4-48.6z M1090.2-40.2c-0.4,0.7-0.8,1.5-1.3,2.2c-0.2,0.3-0.2,0.6,0.2,0.8
			c1.4,0.8,2.7,1.6,4.1,2.4c0.4,0.2,0.6,0.1,0.8-0.2c0.8-1.4,1.7-2.9,2.5-4.3c0.2-0.4,0.2-0.6-0.2-0.8c-1.4-0.8-2.7-1.5-4-2.3
			c-0.4-0.2-0.7-0.2-0.9,0.3C1091-41.6,1090.6-40.9,1090.2-40.2z M1071.8,3.3c0.4-0.7,0.8-1.4,1.2-2.1c0.3-0.4,0.2-0.7-0.2-1
			c-1.3-0.7-2.7-1.5-4-2.3c-0.4-0.2-0.7-0.2-0.9,0.2c-0.8,1.4-1.6,2.8-2.5,4.2c-0.2,0.4-0.2,0.7,0.2,0.9c1.4,0.8,2.7,1.5,4,2.3
			c0.4,0.2,0.6,0.2,0.8-0.2C1071,4.7,1071.4,4,1071.8,3.3z M1135-14.2c0.4-0.7,0.8-1.5,1.3-2.2c0.2-0.3,0.2-0.6-0.2-0.8
			c-1.3-0.8-2.7-1.5-4-2.3c-0.4-0.2-0.6-0.1-0.8,0.2c-0.8,1.4-1.7,2.9-2.5,4.3c-0.2,0.4-0.2,0.6,0.2,0.8c1.3,0.7,2.6,1.5,3.9,2.3
			c0.4,0.2,0.7,0.2,0.9-0.2C1134.2-12.8,1134.6-13.5,1135-14.2z M1111.5,26.3c0.4-0.7,0.8-1.5,1.3-2.2c0.2-0.4,0.2-0.7-0.2-0.9
			c-1.3-0.7-2.6-1.5-3.9-2.3c-0.4-0.2-0.6-0.1-0.8,0.2c-0.8,1.4-1.7,2.9-2.5,4.3c-0.2,0.4-0.2,0.6,0.2,0.8c1.3,0.7,2.6,1.5,3.9,2.3
			c0.4,0.2,0.7,0.2,0.9-0.3C1110.7,27.7,1111.1,27,1111.5,26.3z"/>
		<path class="st2" d="M1032.5-27.8c-0.4-0.3-0.9-0.5-1.3-0.8c-2.4-1.6-3-4.3-1.5-6.9c1.5-2.7,3.1-5.3,4.6-8c1.7-3,3.1-6.3,4.6-9.4
			c0.9-1.9,1.8-3.8,2.8-5.8c1.5-3,2.8-6,4.6-8.8c2.5-4.2,5.1-8.3,8.6-11.8c2.9-2.9,6.3-5.1,10.4-5.9c0.8-0.1,0.4-0.5,0.2-0.9
			c-1.2-1.6-2.2-3.4-2.8-5.4c-0.3-1.2-0.3-2.3-0.1-3.5c0.1-0.8,0.6-1.3,1.3-1.7c1.4-0.7,2.9-0.9,4.5-0.6c3,0.5,5.7,1.6,8.4,2.9
			c0.9,0.5,1.9,0.9,2.8,1.4c0.7,0.3,1.1,0.9,1.2,1.6c0.1,0.8,0.2,1.6,0.3,2.3c0.1,0.4,0,0.7-0.5,0.5c-1-0.3-2-0.1-2.9,0.4
			c-3,1.5-6,3.1-9,4.7c-1.4,0.8-2.4,2-3.2,3.4c-6.5,11.2-13,22.5-19.5,33.7c-3.6,6.1-7.1,12.3-10.7,18.4c-0.7,1.2-0.7,1.2-1.9,0.5
			C1033.1-27.4,1032.8-27.6,1032.5-27.8C1032.5-27.8,1032.5-27.8,1032.5-27.8z"/>
		<path class="st2" d="M1130.7-58.8c2.4,1.4,4.9,2.8,7.3,4.2c0.3,0.2,0.8,0.2,0.7,0.6c0,0.3-0.5,0.3-0.8,0.4
			c-1.7,0.8-3.4,1.7-5.1,2.6c-1.4,0.7-2.7,1.4-4.1,2.1c-1.5,0.8-2.6,1.9-3.5,3.4c-2,3.4-4,6.8-5.9,10.3c-1,1.7-1.1,1.7-2.8,0.7
			c-1.2-0.7-1.3-0.9-0.6-2.2c1.8-3.1,3.5-6.2,5.4-9.3c1.2-1.9,1.7-3.9,1.6-6.1c-0.2-3-0.2-6.1-0.4-9.1c0-0.6-0.1-1.1-0.2-1.7
			c0-0.2-0.2-0.4,0-0.5c0.2-0.1,0.3,0,0.5,0.1c1.5,0.9,3,1.7,4.4,2.6C1128.5-60,1129.6-59.4,1130.7-58.8
			C1130.7-58.8,1130.7-58.8,1130.7-58.8z"/>
		<path class="st2" d="M1099.3-53.5c0.9-1.6,1.8-3.2,2.7-4.7c0.9-1.4,1.2-3,1.2-4.6c-0.1-3.7-0.2-7.3-0.5-11c0-0.2-0.1-0.4,0.1-0.5
			c0.2-0.1,0.3,0.1,0.5,0.1c2.4,1.3,4.8,2.5,7.2,3.9c2.5,1.4,5,2.8,7.5,4.2c0.3,0.1,0.7,0.2,0.7,0.5c0,0.4-0.5,0.3-0.8,0.4
			c-1.8,0.8-3.5,1.7-5.2,2.6c-1.3,0.7-2.6,1.4-3.8,2c-1.6,0.8-2.8,2-3.7,3.6c-1.9,3.4-3.9,6.8-5.9,10.1c-1,1.7-1.1,1.7-2.8,0.7
			c-1-0.6-1.1-0.8-0.5-1.9C1097.2-49.8,1098.2-51.6,1099.3-53.5C1099.3-53.5,1099.3-53.5,1099.3-53.5z"/>
		<path class="st2" d="M1139.1-30.4c0.9-1.6,1.8-3.1,2.7-4.6c0.8-1.3,1.2-2.7,1.2-4.2c-0.1-3.6-0.3-7.2-0.4-10.7
			c0-0.2-0.1-0.3-0.1-0.5c0-0.4-0.4-1,0-1.2c0.4-0.2,0.8,0.3,1.2,0.5c0.7,0.4,1.3,0.8,2,1.3c4,2.4,7.9,4.8,11.9,7.3
			c0.2,0.1,0.5,0.2,0.5,0.5c0,0.2-0.3,0.3-0.5,0.4c-3.1,1.6-6.2,3.2-9.3,4.8c-1.5,0.8-2.6,1.9-3.5,3.4c-1.8,3.2-3.7,6.4-5.5,9.6
			c-1.2,2-1.3,2-3.2,0.8c-0.4-0.3-0.5-0.6-0.4-1c0.1-0.5,0.4-0.9,0.6-1.4C1137.3-27.2,1138.2-28.8,1139.1-30.4z"/>
		<path class="st2" d="M1090.2-40.2c0.4-0.7,0.8-1.4,1.2-2.1c0.2-0.4,0.5-0.5,0.9-0.2c1.3,0.8,2.7,1.6,4,2.3
			c0.4,0.2,0.4,0.5,0.2,0.8c-0.8,1.4-1.7,2.9-2.5,4.3c-0.2,0.4-0.4,0.5-0.8,0.2c-1.4-0.8-2.7-1.6-4.1-2.4c-0.4-0.2-0.4-0.4-0.2-0.8
			C1089.4-38.7,1089.8-39.4,1090.2-40.2z"/>
		<path class="st2" d="M1135-14.2c-0.4,0.7-0.8,1.4-1.2,2.1c-0.2,0.4-0.5,0.5-0.9,0.3c-1.3-0.8-2.6-1.5-3.9-2.3
			c-0.4-0.2-0.4-0.5-0.2-0.8c0.8-1.4,1.7-2.9,2.5-4.3c0.2-0.4,0.4-0.5,0.8-0.2c1.3,0.8,2.6,1.5,4,2.3c0.4,0.2,0.4,0.4,0.2,0.8
			C1135.8-15.7,1135.4-15,1135-14.2z"/>
		<path class="st2" d="M1059.4-30.7c1.4-2.3,2.7-4.7,4.1-7c0.4-0.7,0.8-0.8,1.4-0.4c0.5,0.4,1.1,0.7,1.6,1c0.5,0.2,0.5,0.5,0.3,1
			c-0.1,0.1-0.2,0.3-0.2,0.4c-2.7,4.6-5.3,9.2-8,13.8c-0.6,1-0.6,1-1.6,0.4c-2.1-1.2-2.1-1.2-0.9-3.3
			C1057.2-26.8,1058.3-28.8,1059.4-30.7z"/>
		<path class="st2" d="M1068-41.9c-0.3-0.2-0.5-0.3-0.8-0.5c-0.4-0.2-0.7-0.4-0.4-0.9c0.3-0.4,0.6-0.7,1.1-0.4
			c0.6,0.3,1.1,0.7,1.7,1c0.6,0.3,0.5,0.7,0.2,1.2c-0.3,0.5-0.6,0.3-1,0.1C1068.6-41.5,1068.3-41.7,1068-41.9z"/>
		<path class="st2" d="M1101-10.6c1.7-2.9,3.3-5.7,5-8.6c0.1-0.2,0.2-0.4,0.4-0.6c0.7-1,0.8-1.1,1.9-0.4c0.2,0.1,0.5,0.3,0.7,0.4
			c1.1,0.6,1.2,0.8,0.5,2c-3.6,6.2-7.1,12.3-10.7,18.5c-0.3,0.5-0.6,0.7-1.1,0.3c-0.6-0.4-1.2-0.7-1.8-1c-0.6-0.3-0.5-0.7-0.2-1.2
			c1.1-1.8,2.1-3.7,3.2-5.5C1099.5-8.1,1100.2-9.4,1101-10.6z"/>
		<path class="st2" d="M1084.1-20.2c-1.8,3-3.5,6-5.3,9.1c-0.4,0.7-0.8,0.8-1.4,0.4c-0.4-0.3-0.8-0.5-1.2-0.7
			c-0.7-0.3-0.8-0.7-0.4-1.4c3.5-6,7-12.1,10.5-18.2c0.1-0.2,0.2-0.4,0.3-0.5c0.4-0.6,0.8-0.8,1.5-0.3c0.2,0.2,0.5,0.3,0.7,0.4
			c1.2,0.7,1.3,0.9,0.6,2.1C1087.6-26.3,1085.9-23.3,1084.1-20.2z"/>
		<path class="st2" d="M1121,0.9c1.6-2.8,3.3-5.6,4.9-8.5c0.1-0.3,0.3-0.5,0.4-0.7c0.7-1,0.8-1.1,1.9-0.5c1.7,1,1.7,1,0.7,2.7
			c-3.4,5.9-6.8,11.8-10.3,17.7c-0.6,1.1-0.6,1.1-1.7,0.5c-1.8-1.1-1.8-1.1-0.8-2.9C1117.8,6.4,1119.4,3.7,1121,0.9z"/>
	</g>
</g>
<g class="st1">
	<g>
		<path class="st2" d="M444.4,307.3c-1.8,0.4-3.6,0.9-5.4,1.3c-1.5,0.4-2.9-0.4-3.3-1.9c-0.3-0.9-0.3-0.9-1.2-0.8
			c-1.3,0.2-2.5,0.4-3.8,0.6c-2.7,0.5-5.4,1.1-8.1,1.7c-7.3,1.5-14.6,3.3-21.9,5.1c-4.8,1.2-9.5,2.5-14.2,4
			c-0.5,0.2-0.6,0.4-0.5,0.9c0.5,1.6-0.7,3.2-2.2,3.5c-3.5,0.8-7.1,1.6-10.6,2.5c-1.5,0.4-3.1-0.8-3.4-2.1c-0.5-2.4-1-4.8-1.8-7.2
			c-0.9-2.6-1.7-5.3-2.6-7.9c-0.8-2.6-1.5-5.2-1.9-7.9c-0.2-1.5-0.4-3-0.3-4.5c0.1-2.1,0.6-4.2,1.9-6c0.3-0.4,0.1-0.4-0.3-0.5
			c-1.3-0.2-2.6-0.5-3.6-1.4c-1.4-1.2-1.6-2.2,0-3.7c1.1-1,2.6-1.6,4-2.1c0.8-0.3,1.7-0.5,2.5-0.8c0.5-0.2,0.9-0.1,1.3,0.2
			c0.4,0.3,0.7,0.6,1.1,0.9c0.3,0.3,0.5,0.2,0.5-0.2c0.2-1.6,0.5-3.2,0.8-4.8c0.6-2.9,1.2-5.8,2.5-8.5c0.7-1.5,1.8-2.7,3.3-3.4
			c3.8-1.8,7.7-3.3,11.6-4.5c2.9-0.9,5.8-1.8,8.8-2.5c6.8-1.6,13.6-2.5,20.5-2.9c2.5-0.1,4.6,0.7,6.3,2.5c2.8,2.8,5.3,5.9,7.6,9.2
			c0.1,0.1,0.2,0.2,0.2,0.3c0.2,0.3,0.4,0.2,0.5-0.1c0.2-0.5,0.4-1,0.7-1.5c0.1-0.3,0.3-0.5,0.7-0.6c2.4-0.4,4.8-0.8,7.2-0.5
			c0.1,0,0.2,0,0.3,0.1c1.7,0.4,2.3,1.5,1.6,3.2c-0.5,1.3-1.5,2.2-2.6,2.9c-0.5,0.4-0.5,0.4,0,0.7c2.5,1.3,3.9,3.4,5,5.9
			c1.4,3.2,2.2,6.7,2.8,10.1c0.9,5.2,1.4,10.6,2.9,15.7c0.3,1,0.1,1.9-0.6,2.7c-0.3,0.4-0.7,0.6-1.1,0.7
			C448.2,306.4,446.3,306.8,444.4,307.3C444.4,307.3,444.4,307.3,444.4,307.3z M398.2,262c-0.8,0.3-2.3,0.6-3.8,1
			c-1.4,0.4-2.8,0.8-4.2,1.3c-3.4,1.1-6.6,2.4-9.9,3.7c-1.3,0.5-2.2,1.2-2.7,2.6c-1.1,3.4-1.9,6.8-2.4,10.3c-0.1,0.6,0,0.6,0.5,0.4
			c2-0.7,4-1.4,6.1-2c3.4-1,6.8-1.9,10.2-2.8c6.2-1.5,12.5-3.1,18.8-4.4c3.3-0.7,6.6-1.5,10-2.1c2.4-0.5,4.8-0.9,7.2-1.2
			c0.6-0.1,0.7-0.2,0.3-0.7c-1.8-2.5-3.7-4.9-5.8-7.2c-1.4-1.6-2.9-2.2-5-2C411.2,259.6,405,260.4,398.2,262z M378.9,302.5
			C378.9,302.5,378.9,302.5,378.9,302.5c1.2-0.3,2.5-0.6,3.7-0.9c1.7-0.5,2.1-1.8,1.2-3.3c-0.9-1.5-2.3-2.1-4-2
			c-2.7,0.2-5.4,0.4-8.1,0.8c-1.8,0.3-2.4,1.6-1.5,3.2c0.3,0.5,0.6,0.9,0.9,1.3c1.2,1.5,2.7,2,4.5,1.6
			C376.7,303.1,377.8,302.8,378.9,302.5z M435,289.2L435,289.2c1-0.2,2-0.5,3-0.7c0.3-0.1,0.7-0.2,1-0.3c2.4-0.8,3-3.4,2.8-5.4
			c-0.1-1.4-0.9-1.9-2.3-1.8c-0.3,0-0.5,0.1-0.8,0.2c-0.8,0.3-1.7,0.6-2.5,0.9c-1.7,0.7-3.5,1.2-5.1,2c-1.4,0.7-2.3,1.9-2.4,3.5
			c-0.1,1.5,0.8,2.4,2.3,2.3c0.4,0,0.7-0.1,1-0.2C433,289.7,434,289.5,435,289.2z M434.2,292.7C434.2,292.7,434.2,292.7,434.2,292.7
			c-1.3,0.3-2.6,0.6-4,0.9c-0.4,0.1-0.8,0.3-1.1,0.6c-0.7,0.7-0.4,1.7,0.5,2c0.4,0.1,0.8,0.1,1.2,0c2.6-0.6,5.2-1.2,7.9-1.9
			c0.5-0.1,1-0.4,1.4-0.9c0.5-0.7,0.3-1.4-0.5-1.7c-0.5-0.2-0.9-0.2-1.4-0.1C436.9,292.1,435.5,292.4,434.2,292.7z M381.1,305.3
			C381.1,305.3,381.1,305.3,381.1,305.3c-1.2,0.3-2.5,0.6-3.7,0.9c-0.4,0.1-0.8,0.2-1.1,0.5c-0.4,0.3-0.6,0.7-0.5,1.2
			c0.1,0.5,0.5,0.8,1,0.9c0.4,0.1,0.8,0.1,1.2,0c2.6-0.6,5.1-1.2,7.7-1.8c0.5-0.1,1-0.4,1.3-0.8c0.6-0.6,0.4-1.4-0.4-1.7
			c-0.6-0.2-1.2-0.2-1.7-0.1C383.6,304.7,382.4,305,381.1,305.3z"/>
		<path class="st2" d="M387.8,213.4c0.1,0,0.3,0,0.4,0c12,0.8,24.1,1.5,36.1,2.3c8.1,0.5,16.2,1,24.4,1.5c0.8,0.1,0.8,0,0.8,0.9
			c0,1.8,0,3.5,0,5.3c0,0.5-0.2,0.7-0.7,0.6c-12.9-0.8-25.9-1.7-38.8-2.5c-6.7-0.4-13.3-0.8-20-1.3c-0.4,0-0.8,0.1-1.1,0.3
			c-7.2,4.2-14.3,8.4-21.5,12.6c-9.8,5.7-19.6,11.5-29.4,17.2c-0.4,0.2-0.6,0.2-0.9-0.2c-0.8-1.7-1.6-3.3-2.5-5
			c-0.2-0.5-0.1-0.7,0.3-0.9c3.9-2.3,7.7-4.5,11.6-6.8c7.6-4.5,15.2-8.9,22.8-13.4c6-3.5,12-7,18-10.5
			C387.6,213.6,387.7,213.5,387.8,213.4z"/>
		<path class="st2" d="M393.5,238.9c17.8-4.2,35.7-8.5,53.5-12.7c0.2,0,0.4-0.1,0.6-0.1c0.5-0.2,0.7,0,0.8,0.5
			c0.8,3.6,1.7,7.1,2.5,10.7c0.4,1.5,0.7,3,1.1,4.5c0.1,0.5,0,0.7-0.5,0.8c-0.2,0-0.3,0.1-0.5,0.1c-35.8,8.5-71.6,17-107.4,25.5
			c-1.2,0.3-1,0.4-1.3-0.8c-1.2-4.9-2.3-9.7-3.5-14.6c-0.2-0.8-0.2-0.8,0.7-1C357.5,247.4,375.5,243.2,393.5,238.9z M396.6,252.5
			c17-4,34.1-8.1,51.1-12.1c0.8-0.2,0.8-0.2,0.6-0.9c-0.7-3-1.5-6.1-2.2-9.1c-0.1-0.5-0.3-0.7-0.9-0.6
			c-34.1,8.1-68.2,16.2-102.3,24.3c-0.6,0.1-0.7,0.4-0.5,0.9c0.7,3,1.4,6,2.1,9c0.2,0.9,0.2,0.9,1.1,0.6
			C362.6,260.5,379.6,256.5,396.6,252.5z"/>
		<path class="st2" d="M357.5,297.4c2.2,9.4,4.4,18.7,6.7,28.1c0.2,0.8,0.2,0.8-0.6,1c-1.4,0.3-2.9,0.7-4.3,1
			c-0.5,0.1-0.7,0-0.8-0.5c-1.1-4.7-2.2-9.4-3.3-14.1c-3.3-14-6.7-28-10-42c0-0.2-0.1-0.4-0.2-0.6c-0.1-0.4,0-0.5,0.4-0.6
			c1.6-0.4,3.2-0.8,4.8-1.1c0.4-0.1,0.6,0,0.6,0.4c0,0.2,0.1,0.4,0.1,0.6C353.1,278.7,355.3,288.1,357.5,297.4z"/>
		<path class="st2" d="M452,274.9c-2.2-9.4-4.5-18.7-6.7-28.1c-0.2-0.9-0.2-0.9,0.6-1.1c1.4-0.3,2.9-0.7,4.3-1
			c0.5-0.1,0.7,0,0.8,0.5c0.9,3.8,1.8,7.6,2.7,11.4c3.5,14.9,7.1,29.8,10.6,44.8c0.1,0.2,0.1,0.4,0.2,0.6c0.1,0.4,0,0.5-0.4,0.6
			c-1.6,0.4-3.2,0.8-4.8,1.1c-0.4,0.1-0.6,0-0.6-0.4c0-0.2-0.1-0.4-0.1-0.6C456.4,293.5,454.2,284.2,452,274.9z"/>
	</g>
</g>
<g class="st1">
	<g>
		<path class="st2" d="M1005.1,527c-5-17.9-10.1-35.8-15.2-53.7c-0.3-0.9-0.3-1.8,0-2.7c2.2-7.4,4.4-14.8,6.5-22.2
			c0.2-0.8,0.6-1.7,1.1-2.4c0.9-1.1,2.2-1.5,3.5-0.9c0.7,0.3,1.3,0.7,1.8,1.2c5.9,5.3,11.8,10.6,17.7,16c1,0.9,1.7,2,2,3.4
			c1.2,4.5,2.5,8.9,3.7,13.4c0.2,0.8,0.5,1,1.3,0.7c2.6-0.8,5.2-1.5,7.9-2.2c0.8-0.2,1-0.5,0.7-1.3c-2.6-9-5.1-18.1-7.7-27.1
			c-0.3-0.9-0.3-1.8,0-2.7c2.2-7.4,4.4-14.8,6.6-22.3c0.2-0.8,0.6-1.6,1.1-2.3c0.9-1.2,2.2-1.5,3.6-0.9c0.6,0.3,1.2,0.7,1.7,1.2
			c5.9,5.3,11.9,10.7,17.8,16c1,0.9,1.6,2,2,3.3c2.4,8.5,4.8,17,7.2,25.6c0.3,1.2,0.3,1.2,1.5,0.9c2.5-0.7,5-1.4,7.5-2.1
			c1.1-0.3,1.1-0.3,0.8-1.5c-1.4-4.9-2.8-9.8-4.2-14.7c-0.2-0.9-0.2-1.7,0-2.5c2.2-7.5,4.4-15,6.6-22.4c0.2-0.8,0.6-1.6,1.1-2.3
			c0.8-1.1,2.2-1.4,3.4-0.9c0.7,0.3,1.3,0.7,1.8,1.2c5.9,5.3,11.9,10.7,17.8,16c1,0.9,1.6,2,2,3.3c9.8,34.9,19.7,69.8,29.5,104.7
			c0.1,0.5,0.3,1.1,0.3,1.6c0.1,1.9-0.8,3.1-2.7,3.6c-4.4,1.3-8.8,2.5-13.2,3.7c-4,1.1-7.9,2.2-11.9,3.3c-0.6,0.2-1.2,0.3-1.8,0.3
			c-1.4,0-2.2-0.5-2.6-1.9c-1.9-6.8-3.8-13.6-5.7-20.3c-0.3-1.1-0.3-1.1-1.5-0.8c-2.5,0.7-5,1.4-7.5,2.1c-1.2,0.3-1.2,0.3-0.8,1.5
			c1.8,6.3,3.5,12.6,5.3,18.8c0.1,0.5,0.3,1,0.3,1.6c-0.1,1.8-0.8,2.8-2.6,3.4c-2.5,0.7-4.9,1.4-7.4,2.1c-5.8,1.6-11.7,3.3-17.5,4.9
			c-0.5,0.1-0.9,0.3-1.4,0.3c-1.9,0.2-2.7-0.3-3.2-2.1c-1.9-6.7-3.8-13.4-5.6-20.1c-0.2-0.9-0.5-1.1-1.4-0.8
			c-2.6,0.8-5.2,1.5-7.8,2.2c-0.8,0.2-0.9,0.5-0.7,1.3c1.8,6.3,3.6,12.6,5.3,18.9c0.1,0.5,0.3,1,0.3,1.5c0.1,1.9-0.7,3.1-2.7,3.6
			c-3.3,0.9-6.5,1.9-9.8,2.8c-5.1,1.4-10.1,2.9-15.2,4.3c-0.5,0.1-1,0.3-1.5,0.3c-1.8,0.2-2.5-0.4-3-2.1
			C1015.2,562.8,1010.1,544.9,1005.1,527z M1050.6,506.5C1050.6,506.5,1050.7,506.5,1050.6,506.5c5.3,18.7,10.5,37.3,15.8,56
			c0.5,1.7,0.6,1.8,2.3,1.3c5.7-1.6,11.4-3.2,17.1-4.8c0.3-0.1,0.6-0.2,0.9-0.3c0.6-0.2,0.8-0.6,0.7-1.2c-0.1-0.5-0.2-0.9-0.4-1.4
			c-1.4-4.8-2.7-9.7-4.1-14.5c-7-25.1-14.3-50.2-21.1-75.3c-1.9-7.1-4-14.1-6-21.2c-0.4-1.4-1-2.6-2-3.6c-4.3-3.9-8.5-7.7-12.8-11.6
			c-0.8-0.8-1.1-0.7-1.5,0.5c-1.6,5.3-3.1,10.7-4.7,16c-0.4,1.4-0.4,2.8,0,4.3C1040.2,469.3,1045.4,487.9,1050.6,506.5z
			 M1010.3,524.6C1010.3,524.6,1010.3,524.6,1010.3,524.6c4.6,16.5,9.3,32.9,13.9,49.4c0.1,0.4,0.2,0.9,0.4,1.3
			c0.2,0.6,0.6,0.8,1.2,0.7c0.4-0.1,0.9-0.2,1.3-0.3c5.3-1.5,10.6-3,16-4.5c2.7-0.8,2.6-0.5,1.8-3.2c-7-24.8-14-49.6-21-74.4
			c-2.2-8-4.4-16-6.7-24c-0.4-1.4-1-2.6-2.1-3.6c-4.2-3.8-8.4-7.6-12.6-11.4c-0.9-0.8-1.2-0.7-1.6,0.5c-1.5,5.2-3,10.4-4.6,15.6
			c-0.5,1.7-0.5,3.3,0,5C1001.1,491.8,1005.7,508.2,1010.3,524.6z M1094.4,500.8C1094.4,500.8,1094.4,500.8,1094.4,500.8
			c4.7,16.5,9.3,33.1,14,49.6c0.6,2.1,0.6,2.1,2.7,1.5c5.4-1.5,10.8-3,16.1-4.6c2.7-0.8,2.6-0.5,1.8-3.2c-7-24.8-14-49.6-21-74.4
			c-2.3-8-4.4-16-6.7-24c-0.4-1.4-1-2.6-2.1-3.6c-4.2-3.8-8.4-7.6-12.6-11.4c-1-0.9-1.3-0.8-1.6,0.4c-1.5,5.2-3,10.4-4.6,15.6
			c-0.5,1.6-0.5,3.2,0,4.9C1085.2,468,1089.8,484.4,1094.4,500.8z M1036.5,515.1c1.5,5.2,3,10.5,4.4,15.7c0.2,0.7,0.4,0.9,1.2,0.7
			c2.7-0.8,5.3-1.5,8-2.3c0.7-0.2,0.9-0.4,0.7-1.1c-3-10.5-5.9-21-8.9-31.5c-0.2-0.7-0.5-0.8-1.2-0.6c-2.6,0.8-5.2,1.5-7.8,2.2
			c-1.2,0.3-1.2,0.3-0.8,1.5C1033.6,504.9,1035.1,510,1036.5,515.1z M1078.6,503.3c1.5,5.2,2.9,10.4,4.4,15.6c0.2,0.7,0.5,1,1.3,0.7
			c2.6-0.8,5.3-1.5,7.9-2.2c0.7-0.2,0.9-0.5,0.7-1.2c-3-10.5-5.9-20.9-8.8-31.4c-0.2-0.8-0.5-0.8-1.2-0.6c-2.6,0.8-5.2,1.5-7.8,2.2
			c-0.9,0.2-1.1,0.5-0.8,1.4C1075.7,493,1077.2,498.2,1078.6,503.3z M1039.1,486.5c-0.4-1.6-0.9-3.2-1.3-4.8
			c-0.2-0.7-0.4-0.9-1.1-0.7c-2.7,0.8-5.4,1.6-8.1,2.3c-0.7,0.2-0.8,0.5-0.6,1.2c0.9,3.2,1.8,6.4,2.7,9.6c0.2,0.7,0.4,0.9,1.1,0.7
			c2.7-0.8,5.4-1.6,8.1-2.3c0.7-0.2,0.8-0.5,0.6-1.2C1040,489.7,1039.5,488.1,1039.1,486.5z M1071.3,477.4c0.4,1.6,0.9,3.2,1.3,4.8
			c0.2,0.7,0.4,0.9,1.1,0.7c2.7-0.8,5.4-1.6,8.1-2.3c0.7-0.2,0.8-0.5,0.6-1.2c-0.9-3.2-1.8-6.4-2.7-9.6c-0.2-0.7-0.4-0.9-1.1-0.7
			c-2.7,0.8-5.4,1.6-8.1,2.3c-0.7,0.2-0.8,0.5-0.6,1.2C1070.4,474.2,1070.9,475.8,1071.3,477.4z M1053.7,538.4
			c-0.5-1.6-0.9-3.2-1.4-4.9c-0.2-0.7-0.4-0.9-1.1-0.7c-2.7,0.8-5.4,1.6-8.1,2.3c-0.7,0.2-0.8,0.5-0.6,1.2c0.9,3.2,1.8,6.4,2.7,9.6
			c0.2,0.7,0.4,0.9,1.1,0.7c2.7-0.8,5.4-1.6,8.1-2.3c0.7-0.2,0.8-0.5,0.6-1.2C1054.6,541.6,1054.2,540,1053.7,538.4z M1085.9,529.2
			c0.5,1.6,0.9,3.2,1.4,4.9c0.2,0.7,0.4,0.9,1.1,0.7c2.7-0.8,5.4-1.6,8.1-2.3c0.7-0.2,0.8-0.5,0.6-1.2c-0.9-3.2-1.8-6.4-2.7-9.6
			c-0.2-0.7-0.4-0.9-1.1-0.7c-2.7,0.8-5.4,1.6-8.1,2.3c-0.7,0.2-0.8,0.5-0.6,1.2C1085,526,1085.5,527.6,1085.9,529.2z"/>
	</g>
</g>
</svg>
